<svg width="516" height="468" viewBox="0 0 516 468" fill="none" xmlns="http://www.w3.org/2000/svg">
<path d="M103.276 424.985C197.225 481.75 349.534 481.75 443.472 424.985C537.409 368.22 537.409 276.168 443.472 219.403C349.534 162.638 197.225 162.638 103.276 219.403C9.32685 276.168 9.33848 368.208 103.276 424.985Z" fill="white" fill-opacity="0.2"/>
<path d="M63.9731 292.269C63.9731 292.269 61.994 274.806 53.3209 261.313C44.6477 247.821 32.7382 239.345 21.6203 238.484C10.5024 237.622 1.52661 247.797 13.4711 254.864C25.4155 261.93 46.4988 269.044 56.2197 295.319L63.9731 292.269Z" fill="#E84F2E"/>
<path d="M63.9731 292.269C63.9731 292.269 61.994 274.806 53.3209 261.313C44.6477 247.821 32.7382 239.345 21.6203 238.484C10.5024 237.622 1.52661 247.797 13.4711 254.864C25.4155 261.93 46.4988 269.044 56.2197 295.319L63.9731 292.269Z" fill="#263238"/>
<path d="M60.7142 287.74C60.7521 287.752 60.7927 287.752 60.8306 287.74C60.9031 287.712 60.9693 287.669 61.0252 287.615C61.081 287.561 61.1255 287.496 61.1559 287.425C61.1863 287.353 61.202 287.276 61.2021 287.198C61.2022 287.12 61.1867 287.043 61.1566 286.971C49.4333 258.088 27.1044 246.016 16.9178 243.676C16.8414 243.659 16.7623 243.657 16.6851 243.67C16.6079 243.684 16.5342 243.713 16.4682 243.755C16.4022 243.797 16.3452 243.852 16.3005 243.916C16.2558 243.981 16.2242 244.053 16.2077 244.13C16.1758 244.282 16.204 244.441 16.2864 244.574C16.3688 244.706 16.4991 244.801 16.6501 244.84C26.6154 247.168 48.502 258.985 60.0506 287.414C60.1063 287.537 60.203 287.636 60.324 287.696C60.445 287.755 60.5829 287.771 60.7142 287.74Z" fill="white"/>
<path d="M1.34122 288.089C2.34241 290.36 4.83375 291.582 7.16211 292.467C9.49046 293.352 11.9702 294.388 13.2158 296.53C15.7188 300.872 11.6093 307.007 14.2985 311.175C14.9275 312.019 15.7212 312.727 16.6317 313.255C17.5423 313.783 18.5505 314.121 19.5955 314.249C21.3206 314.497 23.0577 314.652 24.7994 314.714C25.6291 314.706 26.4574 314.643 27.2791 314.528C29.6878 313.986 32.2078 314.252 34.4504 315.285C37.9429 317.229 38.9558 321.571 41.0397 324.924C42.337 326.908 44.0501 328.586 46.0602 329.843C48.0704 331.099 50.3296 331.903 52.6814 332.2C54.2298 332.41 57.1053 332.689 58.6769 331.804C58.7902 331.746 58.8991 331.68 59.0029 331.606C59.2241 331.362 59.4919 331.048 59.6083 330.885C59.632 330.852 59.6516 330.817 59.6665 330.78C60.2835 328.533 59.2823 326.193 59.2474 323.876C59.2357 323.737 59.2357 323.597 59.2474 323.457C59.3405 320.756 59.422 318.079 59.4802 315.378C59.6044 310.434 59.6549 305.478 59.6316 300.511C59.6316 297.286 59.9808 293.771 58.6187 290.732C57.1169 287.403 53.3567 287.321 51.948 284.05C51.3775 282.746 51.0749 281.349 50.5277 280.033C49.6738 278.101 48.3061 276.44 46.5737 275.231C44.8412 274.022 42.8103 273.311 40.702 273.176C34.1594 272.839 28.2803 278.147 21.7376 277.658C20.0527 277.432 18.3815 277.114 16.7316 276.704C11.423 275.714 5.29942 277.228 2.31913 281.71C1.64779 282.613 1.20767 283.666 1.03721 284.778C0.866747 285.89 0.971123 287.027 1.34122 288.089Z" fill="#37474F"/>
<path d="M60.2022 320.429C60.273 320.411 60.3395 320.38 60.3979 320.336C60.4563 320.292 60.5054 320.237 60.5423 320.175C60.5791 320.112 60.6031 320.042 60.6127 319.97C60.6222 319.897 60.6173 319.824 60.598 319.754C51.564 285.795 15.8005 280.893 7.43007 281.557C7.35711 281.561 7.28576 281.58 7.22025 281.613C7.15474 281.645 7.09639 281.69 7.04864 281.746C7.00089 281.801 6.96472 281.865 6.94225 281.935C6.91978 282.005 6.91148 282.078 6.91783 282.151C6.92974 282.297 6.99868 282.433 7.10977 282.528C7.22085 282.624 7.36517 282.673 7.51156 282.663C15.6608 282.081 50.6793 286.877 59.527 320.08C59.5747 320.212 59.6708 320.322 59.7961 320.387C59.9213 320.451 60.0664 320.467 60.2022 320.429Z" fill="white"/>
<path d="M20.4337 303.236C20.5459 303.215 20.6481 303.158 20.7248 303.073C24.0314 300.215 27.926 298.12 32.1328 296.935C36.3396 295.75 40.7556 295.504 45.0677 296.216C45.1444 296.239 45.2252 296.245 45.3045 296.234C45.3838 296.223 45.4597 296.195 45.5273 296.152C45.5948 296.109 45.6523 296.052 45.6959 295.985C45.7396 295.918 45.7682 295.842 45.78 295.763C45.7918 295.684 45.7864 295.603 45.7643 295.526C45.7422 295.449 45.7037 295.378 45.6517 295.317C45.5996 295.256 45.535 295.208 45.4624 295.174C45.3898 295.14 45.3108 295.122 45.2307 295.122C40.7461 294.38 36.1529 294.638 31.7796 295.878C27.4064 297.117 23.3611 299.308 19.9331 302.293C19.8307 302.4 19.7735 302.542 19.7735 302.689C19.7735 302.837 19.8307 302.979 19.9331 303.085C19.9973 303.15 20.0767 303.198 20.1642 303.224C20.2516 303.251 20.3443 303.255 20.4337 303.236Z" fill="white"/>
<path d="M346.123 1.50478L410.467 38.6653C411.094 39.0736 411.615 39.6236 411.989 40.2708C412.363 40.918 412.58 41.6442 412.621 42.3907V219.276C412.58 220.022 412.363 220.748 411.989 221.396C411.615 222.043 411.094 222.593 410.467 223.001L346.123 260.162C345.456 260.5 344.718 260.677 343.97 260.677C343.221 260.677 342.483 260.5 341.816 260.162L277.472 223.001C276.844 222.594 276.322 222.045 275.948 221.397C275.573 220.75 275.358 220.023 275.318 219.276V42.3907C275.359 41.6442 275.576 40.918 275.95 40.2708C276.324 39.6236 276.846 39.0736 277.472 38.6653L341.816 1.50478C342.485 1.17159 343.222 0.998169 343.97 0.998169C344.717 0.998169 345.454 1.17159 346.123 1.50478Z" fill="#37474F"/>
<path d="M275.318 42.3898V219.275C275.359 220.02 275.574 220.745 275.946 221.392C276.318 222.039 276.837 222.59 277.46 223L341.816 260.161C342.477 260.515 343.219 260.692 343.97 260.673V78.8053C343.22 78.8183 342.479 78.6421 341.816 78.293L277.46 41.1441L276.878 40.6552L276.11 40.0149C275.626 40.7153 275.351 41.5391 275.318 42.3898Z" fill="#263238"/>
<path d="M402.388 59.7944L354.192 87.6182C353.564 88.0284 353.043 88.5804 352.669 89.2296C352.294 89.8788 352.078 90.607 352.038 91.3552V109.691C352.038 111.065 352.992 111.624 354.18 110.937L402.377 83.1129C403.003 82.7046 403.524 82.1546 403.899 81.5074C404.273 80.8602 404.489 80.1339 404.531 79.3875V61.0401C404.542 59.6663 403.634 59.1075 402.388 59.7944Z" fill="#455A64"/>
<path d="M400.501 67.8855C400.445 68.6077 400.221 69.3068 399.847 69.9272C399.473 70.5477 398.96 71.0723 398.348 71.4595L358.23 94.615C357.066 95.3018 356.076 94.8129 356.076 93.5323C356.133 92.8101 356.357 92.111 356.73 91.4906C357.104 90.8701 357.618 90.3454 358.23 89.9583L398.348 66.7911C399.535 66.1043 400.501 66.5932 400.501 67.8855Z" fill="#E84F2E"/>
<path d="M400.501 77.2101C400.445 77.9323 400.221 78.6314 399.847 79.2518C399.473 79.8723 398.96 80.3969 398.348 80.7841L358.23 103.94C357.066 104.626 356.076 104.137 356.076 102.857C356.133 102.135 356.357 101.436 356.73 100.815C357.104 100.195 357.618 99.67 358.23 99.2828L398.348 76.1157C399.535 75.4289 400.501 75.9178 400.501 77.2101Z" fill="#263238"/>
<path d="M398.349 76.1161L376.23 88.922V93.5787L398.349 80.7728C398.961 80.3856 399.475 79.8609 399.849 79.2405C400.222 78.6201 400.446 77.921 400.503 77.1988C400.503 75.9182 399.536 75.4292 398.349 76.1161Z" fill="#E84F2E"/>
<path d="M402.388 92.4376L354.192 120.261C353.566 120.67 353.045 121.221 352.671 121.868C352.297 122.515 352.08 123.241 352.038 123.987V142.334C352.038 143.708 352.992 144.267 354.18 143.58L402.377 115.756C403.003 115.348 403.524 114.798 403.899 114.151C404.273 113.503 404.489 112.777 404.531 112.031V93.6832C404.542 92.3095 403.634 91.7973 402.388 92.4376Z" fill="#455A64"/>
<path d="M400.501 100.518C400.447 101.242 400.224 101.944 399.85 102.566C399.476 103.189 398.961 103.715 398.348 104.104L358.23 127.259C357.066 127.946 356.076 127.457 356.076 126.176C356.131 125.452 356.354 124.751 356.728 124.128C357.102 123.506 357.616 122.979 358.23 122.591L398.348 99.4353C399.535 98.7834 400.501 99.2374 400.501 100.518Z" fill="#E84F2E"/>
<path d="M400.501 109.854C400.445 110.576 400.221 111.275 399.847 111.895C399.473 112.516 398.96 113.041 398.348 113.428L358.23 136.583C357.066 137.27 356.076 136.781 356.076 135.5C356.133 134.778 356.357 134.079 356.73 133.459C357.104 132.838 357.618 132.314 358.23 131.926L398.348 108.759C399.535 108.096 400.501 108.561 400.501 109.854Z" fill="#263238"/>
<path d="M398.349 108.76L364.158 128.551V133.208L398.349 113.475C398.962 113.088 399.475 112.563 399.849 111.943C400.223 111.322 400.447 110.623 400.503 109.901C400.503 108.562 399.537 108.097 398.349 108.76Z" fill="#E84F2E"/>
<path d="M402.388 125.081L354.192 152.904C353.565 153.313 353.044 153.863 352.67 154.51C352.296 155.157 352.079 155.883 352.038 156.63V174.977C352.038 176.351 352.992 176.91 354.18 176.223L402.377 148.399C403.004 147.989 403.526 147.437 403.9 146.788C404.274 146.138 404.49 145.41 404.531 144.662V126.326C404.542 124.952 403.634 124.394 402.388 125.081Z" fill="#455A64"/>
<path d="M400.501 133.161C400.445 133.883 400.221 134.582 399.847 135.203C399.473 135.823 398.96 136.348 398.348 136.735L358.23 159.902C357.066 160.589 356.076 160.1 356.076 158.808C356.133 158.086 356.357 157.387 356.73 156.766C357.104 156.146 357.618 155.621 358.23 155.234L398.348 132.078C399.535 131.38 400.501 131.88 400.501 133.161Z" fill="#E84F2E"/>
<path d="M400.501 142.487C400.445 143.209 400.221 143.908 399.847 144.528C399.473 145.149 398.96 145.673 398.348 146.061L358.23 169.228C357.066 169.915 356.076 169.426 356.076 168.133C356.133 167.411 356.357 166.712 356.73 166.092C357.104 165.471 357.618 164.946 358.23 164.559L398.348 141.404C399.535 140.694 400.501 141.206 400.501 142.487Z" fill="#263238"/>
<path d="M398.348 141.404L384.378 149.484V154.14L398.348 146.049C398.96 145.662 399.474 145.137 399.848 144.517C400.222 143.897 400.445 143.197 400.502 142.475C400.502 141.206 399.535 140.694 398.348 141.404Z" fill="#E84F2E"/>
<path d="M402.388 157.726L354.192 185.549C353.565 185.958 353.044 186.508 352.67 187.155C352.296 187.802 352.079 188.528 352.038 189.275V207.622C352.038 208.996 352.992 209.555 354.18 208.868L402.377 181.044C403.004 180.634 403.526 180.082 403.9 179.433C404.274 178.783 404.49 178.055 404.531 177.307V158.971C404.542 157.598 403.634 156.992 402.388 157.726Z" fill="#455A64"/>
<path d="M400.501 165.806C400.445 166.528 400.221 167.227 399.847 167.847C399.473 168.468 398.96 168.992 398.348 169.38L358.23 192.547C357.066 193.234 356.076 192.745 356.076 191.452C356.133 190.73 356.357 190.031 356.73 189.411C357.104 188.79 357.618 188.266 358.23 187.878L398.348 164.723C399.535 164.036 400.501 164.525 400.501 165.806Z" fill="#E84F2E"/>
<path d="M400.501 175.13C400.445 175.852 400.221 176.551 399.847 177.172C399.473 177.792 398.96 178.317 398.348 178.704L358.23 201.871C357.066 202.558 356.076 202.069 356.076 200.777C356.133 200.055 356.357 199.356 356.73 198.735C357.104 198.115 357.618 197.59 358.23 197.203L398.348 174.047C399.535 173.361 400.501 173.85 400.501 175.13Z" fill="#263238"/>
<path d="M398.349 174.047L376.23 186.795V191.452L398.349 178.704C398.961 178.317 399.475 177.792 399.849 177.172C400.222 176.551 400.446 175.852 400.503 175.13C400.503 173.85 399.536 173.361 398.349 174.047Z" fill="#E84F2E"/>
<path d="M402.388 190.368L354.192 218.192C353.565 218.6 353.044 219.15 352.67 219.797C352.296 220.445 352.079 221.171 352.038 221.917V240.265C352.038 241.638 352.992 242.185 354.18 241.499L402.377 213.675C403.003 213.267 403.524 212.716 403.899 212.069C404.273 211.422 404.489 210.696 404.531 209.949V191.602C404.542 190.228 403.634 189.681 402.388 190.368Z" fill="#455A64"/>
<path d="M400.501 198.447C400.445 199.169 400.221 199.869 399.847 200.489C399.473 201.109 398.96 201.634 398.348 202.021L358.23 225.188C357.066 225.864 356.076 225.386 356.076 224.094C356.133 223.372 356.357 222.673 356.73 222.052C357.104 221.432 357.618 220.907 358.23 220.52L398.348 197.353C399.535 196.678 400.501 197.155 400.501 198.447Z" fill="#E84F2E"/>
<path d="M400.501 207.773C400.445 208.496 400.221 209.195 399.847 209.815C399.473 210.436 398.96 210.96 398.348 211.347L358.23 234.514C357.066 235.201 356.076 234.712 356.076 233.42C356.133 232.698 356.357 231.999 356.73 231.378C357.104 230.758 357.618 230.233 358.23 229.846L398.348 206.691C399.535 206.004 400.501 206.481 400.501 207.773Z" fill="#263238"/>
<path d="M398.348 206.691L368.196 224.096V228.752L398.348 211.29C398.96 210.903 399.474 210.378 399.848 209.758C400.222 209.137 400.446 208.438 400.502 207.716C400.502 206.482 399.536 206.004 398.348 206.691Z" fill="#E84F2E"/>
<path d="M333.877 90.0399C331.642 88.7477 329.837 89.9235 329.837 92.671V199.321C329.895 200.77 330.29 202.186 330.991 203.455C331.693 204.724 332.681 205.812 333.877 206.632C336.1 207.925 337.905 206.749 337.905 204.001V97.351C337.849 95.903 337.455 94.4881 336.756 93.2189C336.057 91.9497 335.071 90.8612 333.877 90.0399Z" fill="#37474F"/>
<path d="M333.877 204.269C333.278 203.86 332.782 203.316 332.431 202.681C332.079 202.047 331.88 201.338 331.851 200.613V93.6721C331.851 92.2984 332.759 91.7047 333.877 92.3566C334.472 92.7661 334.964 93.3085 335.314 93.9409C335.663 94.5734 335.861 95.2785 335.891 96.0005V202.953C335.891 204.315 334.948 204.909 333.877 204.269Z" fill="#263238"/>
<path d="M333.877 204.269C333.278 203.86 332.782 203.316 332.431 202.681C332.079 202.047 331.88 201.338 331.851 200.613V149.483L335.891 151.811V202.942C335.891 204.316 334.948 204.909 333.877 204.269Z" fill="#E84F2E"/>
<path d="M321.757 83.0419C319.522 81.7497 317.717 82.9255 317.717 85.6729V192.323C317.77 193.773 318.163 195.191 318.864 196.461C319.566 197.731 320.557 198.818 321.757 199.634C323.981 200.926 325.797 199.751 325.797 197.003V90.3529C325.739 88.9039 325.344 87.4884 324.643 86.2191C323.941 84.9499 322.953 83.8619 321.757 83.0419Z" fill="#37474F"/>
<path d="M321.757 197.272C321.158 196.863 320.663 196.319 320.311 195.685C319.959 195.05 319.761 194.342 319.731 193.617V86.6755C319.731 85.3018 320.639 84.7197 321.757 85.36C322.354 85.7706 322.847 86.3149 323.196 86.9495C323.546 87.5841 323.743 88.2915 323.771 89.0155V195.957C323.771 197.331 322.875 197.913 321.757 197.272Z" fill="#E84F2E"/>
<path d="M309.637 76.0578C307.414 74.7539 305.598 75.9414 305.598 78.6772V185.327C305.655 186.776 306.051 188.192 306.752 189.461C307.453 190.731 308.441 191.818 309.637 192.638C311.873 193.931 313.677 192.755 313.677 190.007V83.3688C313.625 81.9186 313.232 80.5011 312.53 79.231C311.828 77.9609 310.837 76.8738 309.637 76.0578Z" fill="#37474F"/>
<path d="M309.639 190.275C309.039 189.869 308.544 189.328 308.194 188.694C307.844 188.061 307.649 187.354 307.625 186.631V79.6777C307.625 78.3156 308.521 77.7219 309.639 78.3622C310.238 78.7716 310.733 79.3153 311.085 79.95C311.436 80.5846 311.635 81.2927 311.664 82.0177V188.959C311.664 190.333 310.756 190.926 309.639 190.275Z" fill="#263238"/>
<path d="M309.639 190.276C309.039 189.87 308.544 189.329 308.194 188.696C307.844 188.062 307.649 187.355 307.625 186.632V103.975L311.664 106.304V188.96C311.664 190.334 310.756 190.928 309.639 190.276Z" fill="#E84F2E"/>
<path d="M297.531 69.0611C295.295 67.7688 293.491 68.9446 293.491 71.6921V178.331C293.543 179.781 293.936 181.198 294.638 182.469C295.34 183.739 296.331 184.826 297.531 185.642C299.754 186.934 301.559 185.758 301.559 183.011V76.3721C301.502 74.9241 301.109 73.5092 300.41 72.24C299.71 70.9708 298.725 69.8823 297.531 69.0611Z" fill="#37474F"/>
<path d="M297.531 183.278C296.933 182.87 296.439 182.328 296.087 181.696C295.736 181.063 295.536 180.358 295.505 179.635V72.6933C295.505 71.3196 296.413 70.7258 297.531 71.3661C298.127 71.7768 298.62 72.321 298.97 72.9556C299.32 73.5902 299.516 74.2976 299.545 75.0216V181.963C299.545 183.337 298.637 183.93 297.531 183.278Z" fill="#263238"/>
<path d="M297.531 183.279C296.933 182.871 296.439 182.329 296.087 181.696C295.736 181.064 295.536 180.358 295.505 179.635V161.579L299.545 163.907V181.952C299.545 183.337 298.637 183.931 297.531 183.279Z" fill="#E84F2E"/>
<path d="M285.411 62.0651C283.176 60.7728 281.371 61.9487 281.371 64.6961V171.335C281.424 172.785 281.816 174.202 282.518 175.473C283.22 176.743 284.211 177.83 285.411 178.646C287.635 179.95 289.451 178.762 289.451 176.026V69.3761C289.393 67.9271 288.998 66.5116 288.296 65.2423C287.595 63.973 286.607 62.8851 285.411 62.0651Z" fill="#37474F"/>
<path d="M285.411 176.294C284.812 175.885 284.317 175.341 283.965 174.706C283.613 174.072 283.415 173.364 283.385 172.639V65.6973C283.385 64.3235 284.293 63.7298 285.411 64.3817C286.01 64.7872 286.505 65.3287 286.855 65.962C287.205 66.5953 287.4 67.3024 287.425 68.0256V174.967C287.425 176.341 286.528 176.934 285.411 176.294Z" fill="#263238"/>
<path d="M285.411 176.294C284.812 175.885 284.317 175.341 283.965 174.706C283.613 174.072 283.415 173.364 283.385 172.639V116.84L287.425 119.168V174.955C287.425 176.341 286.528 176.934 285.411 176.294Z" fill="#E84F2E"/>
<path d="M336.181 219.602L283.094 188.949C282.14 188.402 281.371 188.844 281.371 189.95V209.287C281.403 209.885 281.576 210.466 281.876 210.984C282.175 211.502 282.593 211.942 283.094 212.268L336.181 242.92C337.135 243.468 337.904 243.025 337.904 241.931V222.582C337.872 221.985 337.699 221.403 337.4 220.885C337.1 220.368 336.683 219.928 336.181 219.602Z" fill="#37474F"/>
<path d="M334.004 225.34C334.004 226.621 333.038 227.11 331.85 226.423L287.425 200.811C286.813 200.424 286.299 199.899 285.925 199.279C285.552 198.658 285.328 197.959 285.271 197.237C285.271 195.945 286.238 195.456 287.425 196.143L331.85 221.755C332.464 222.143 332.978 222.67 333.352 223.292C333.726 223.915 333.949 224.616 334.004 225.34Z" fill="#263238"/>
<path d="M334.004 225.34C334.004 226.621 333.038 227.11 331.85 226.423L299.544 207.796V203.139L331.85 221.766C332.463 222.153 332.976 222.678 333.35 223.299C333.724 223.919 333.948 224.618 334.004 225.34Z" fill="#E84F2E"/>
<path d="M334.004 234.666C334.004 235.947 333.038 236.436 331.85 235.749L287.425 210.137C286.813 209.75 286.299 209.225 285.925 208.605C285.552 207.984 285.328 207.285 285.271 206.563C285.271 205.271 286.238 204.782 287.425 205.469L331.85 231.08C332.464 231.469 332.978 231.995 333.352 232.618C333.726 233.24 333.949 233.942 334.004 234.666Z" fill="#263238"/>
<path d="M334.004 234.665C334.004 235.945 333.038 236.434 331.85 235.747L319.731 228.762V224.105L331.85 231.091C332.463 231.478 332.976 232.002 333.35 232.623C333.724 233.243 333.948 233.942 334.004 234.665Z" fill="#E84F2E"/>
<path d="M277.471 38.6653L341.815 1.50478C342.485 1.17159 343.222 0.998169 343.969 0.998169C344.717 0.998169 345.454 1.17159 346.123 1.50478L410.467 38.6653C410.729 38.7505 410.957 38.9163 411.118 39.139C411.28 39.3618 411.367 39.6299 411.367 39.9052C411.367 40.1804 411.28 40.4486 411.118 40.6713C410.957 40.894 410.729 41.0598 410.467 41.145L346.123 78.2939C345.455 78.6324 344.718 78.8088 343.969 78.8088C343.221 78.8088 342.483 78.6324 341.815 78.2939L277.471 41.145C277.21 41.0598 276.982 40.894 276.82 40.6713C276.658 40.4486 276.571 40.1804 276.571 39.9052C276.571 39.6299 276.658 39.3618 276.82 39.139C276.982 38.9163 277.21 38.7505 277.471 38.6653Z" fill="#455A64"/>
<path d="M345.262 69.4684L395.17 40.6434C395.548 40.4008 395.863 40.0714 396.087 39.6825C396.312 39.2937 396.441 38.8568 396.462 38.4082V36.7318C396.441 36.2832 396.312 35.8462 396.087 35.4574C395.863 35.0686 395.548 34.7391 395.17 34.4965L345.262 5.64823C344.861 5.44744 344.418 5.3429 343.97 5.3429C343.521 5.3429 343.079 5.44744 342.678 5.64823L292.758 34.4965C292.382 34.7412 292.069 35.0712 291.844 35.4596C291.62 35.8479 291.49 36.2838 291.465 36.7318V38.4082C291.49 38.8561 291.62 39.292 291.844 39.6804C292.069 40.0688 292.382 40.3987 292.758 40.6434L342.678 69.4684C343.079 69.6692 343.521 69.7738 343.97 69.7738C344.418 69.7738 344.861 69.6692 345.262 69.4684Z" fill="#263238"/>
<path d="M395.169 35.9868L345.261 64.8002C344.862 65.0064 344.418 65.114 343.969 65.114C343.519 65.114 343.076 65.0064 342.677 64.8002L292.757 35.9868C292.603 35.9317 292.471 35.8306 292.377 35.6972C292.283 35.5639 292.233 35.4048 292.233 35.2418C292.233 35.0787 292.283 34.9196 292.377 34.7863C292.471 34.6529 292.603 34.5518 292.757 34.4967L342.677 6.67285C343.076 6.46662 343.519 6.35901 343.969 6.35901C344.418 6.35901 344.862 6.46662 345.261 6.67285L395.169 34.4967C395.328 34.546 395.468 34.6449 395.566 34.7789C395.665 34.913 395.719 35.0752 395.719 35.2418C395.719 35.4083 395.665 35.5705 395.566 35.7046C395.468 35.8386 395.328 35.9375 395.169 35.9868Z" fill="#455A64"/>
<path d="M343.971 65.1144V69.7711C344.42 69.7828 344.865 69.6786 345.263 69.4684L395.171 40.6434C395.549 40.4008 395.864 40.0714 396.088 39.6826C396.313 39.2937 396.442 38.8568 396.463 38.4082V36.7318C396.443 36.3324 396.339 35.9416 396.159 35.5847C395.978 35.2278 395.725 34.9126 395.416 34.6595C395.881 35.067 395.8 35.6258 395.171 35.9867L345.263 64.8001C344.866 65.0143 344.421 65.1226 343.971 65.1144Z" fill="#37474F"/>
<path d="M345.262 55.4757L379.024 35.9874C379.406 35.7466 379.726 35.4184 379.957 35.0298C380.187 34.6411 380.322 34.2032 380.351 33.7522V32.0641C380.324 31.6168 380.193 31.182 379.968 30.794C379.744 30.406 379.433 30.0756 379.058 29.8289L357.37 17.2907C356.54 16.7703 355.803 16.1129 355.193 15.3465L344.855 1.37639C344.607 1.05182 344.251 0.827307 343.851 0.743935C343.451 0.660562 343.035 0.723898 342.678 0.92236L308.917 20.4107C308.54 20.6547 308.227 20.9845 308.002 21.373C307.777 21.7615 307.648 22.1977 307.625 22.6459V33.659C307.649 34.107 307.779 34.5428 308.003 34.9312C308.228 35.3196 308.541 35.6496 308.917 35.8942L342.678 55.3826C343.07 55.6033 343.509 55.727 343.959 55.7432C344.408 55.7594 344.855 55.6677 345.262 55.4757Z" fill="#263238"/>
<path d="M342.677 50.8188L320.976 38.3155C320.563 38.0725 320.174 37.7919 319.812 37.4773C319.424 37.1264 319.073 36.7363 318.765 36.3131L308.427 22.343C308.309 22.1944 308.225 22.0218 308.182 21.8373C308.138 21.6528 308.136 21.461 308.175 21.2754C308.214 21.0899 308.293 20.9152 308.407 20.7637C308.521 20.6122 308.667 20.4876 308.834 20.3988L342.595 0.910523C342.952 0.712061 343.369 0.648721 343.768 0.732093C344.168 0.815465 344.524 1.03998 344.772 1.36455L355.11 15.3347C355.653 16.1196 356.331 16.8016 357.113 17.3487L378.941 29.7705C379.094 29.8256 379.227 29.9267 379.321 30.0601C379.415 30.1934 379.465 30.3525 379.465 30.5155C379.465 30.6786 379.415 30.8377 379.321 30.971C379.227 31.1044 379.094 31.2055 378.941 31.2606L345.18 50.7606C344.794 50.9575 344.368 51.065 343.935 51.0751C343.502 51.0852 343.072 50.9976 342.677 50.8188Z" fill="#455A64"/>
<path d="M308.917 20.5038L342.678 1.0155C343.035 0.817042 343.452 0.753701 343.851 0.837073C344.251 0.920446 344.608 1.14496 344.855 1.46953L355.193 15.4397C355.509 15.8388 355.864 16.2054 356.253 16.534C356.253 16.534 319.919 37.4892 319.907 37.4892C319.512 37.1414 319.157 36.751 318.848 36.325L308.51 22.3549C308.408 22.2087 308.338 22.0431 308.304 21.8685C308.269 21.694 308.271 21.5142 308.309 21.3404C308.348 21.1666 308.421 21.0026 308.526 20.8587C308.631 20.7147 308.764 20.5939 308.917 20.5038Z" fill="#37474F"/>
<path d="M370.827 30.1784C370.359 29.9374 369.84 29.8116 369.313 29.8116C368.787 29.8116 368.268 29.9374 367.8 30.1784C366.962 30.6557 366.962 31.4357 367.8 31.9246C368.27 32.1602 368.788 32.2828 369.313 32.2828C369.839 32.2828 370.357 32.1602 370.827 31.9246C371.665 31.4357 371.665 30.6557 370.827 30.1784Z" fill="#E84F2E"/>
<path d="M364.773 33.6705C364.304 33.4349 363.785 33.3123 363.26 33.3123C362.734 33.3123 362.216 33.4349 361.747 33.6705C360.908 34.1594 360.908 34.9394 361.747 35.4167C362.215 35.6577 362.733 35.7835 363.26 35.7835C363.786 35.7835 364.305 35.6577 364.773 35.4167C365.612 34.9394 365.612 34.1594 364.773 33.6705Z" fill="#E84F2E"/>
<path d="M358.72 37.1627C358.248 36.927 357.728 36.8043 357.201 36.8043C356.673 36.8043 356.153 36.927 355.681 37.1627C355.499 37.2265 355.341 37.3454 355.23 37.5029C355.118 37.6603 355.058 37.8486 355.058 38.0417C355.058 38.2347 355.118 38.423 355.23 38.5804C355.341 38.7379 355.499 38.8568 355.681 38.9206C356.153 39.1563 356.673 39.279 357.201 39.279C357.728 39.279 358.248 39.1563 358.72 38.9206C358.902 38.8568 359.06 38.7379 359.172 38.5804C359.283 38.423 359.343 38.2347 359.343 38.0417C359.343 37.8486 359.283 37.6603 359.172 37.5029C359.06 37.3454 358.902 37.2265 358.72 37.1627Z" fill="#263238"/>
<path d="M352.655 40.6673C352.187 40.4263 351.668 40.3005 351.141 40.3005C350.615 40.3005 350.096 40.4263 349.628 40.6673C349.444 40.728 349.284 40.8451 349.171 41.0018C349.058 41.1586 348.997 41.347 348.997 41.5404C348.997 41.7338 349.058 41.9222 349.171 42.079C349.284 42.2357 349.444 42.3528 349.628 42.4135C350.096 42.6545 350.615 42.7802 351.141 42.7802C351.668 42.7802 352.187 42.6545 352.655 42.4135C352.838 42.3528 352.998 42.2357 353.111 42.079C353.224 41.9222 353.285 41.7338 353.285 41.5404C353.285 41.347 353.224 41.1586 353.111 41.0018C352.998 40.8451 352.838 40.728 352.655 40.6673Z" fill="#263238"/>
<path d="M366.287 27.5468C365.818 27.3113 365.299 27.1886 364.774 27.1886C364.248 27.1886 363.73 27.3113 363.261 27.5468C363.078 27.6107 362.92 27.7295 362.809 27.887C362.697 28.0445 362.637 28.2327 362.637 28.4258C362.637 28.6188 362.697 28.8071 362.809 28.9646C362.92 29.122 363.078 29.2409 363.261 29.3047C363.73 29.5403 364.248 29.6629 364.774 29.6629C365.299 29.6629 365.818 29.5403 366.287 29.3047C366.47 29.2409 366.627 29.122 366.739 28.9646C366.851 28.8071 366.911 28.6188 366.911 28.4258C366.911 28.2327 366.851 28.0445 366.739 27.887C366.627 27.7295 366.47 27.6107 366.287 27.5468Z" fill="#E84F2E"/>
<path d="M360.234 31.0507C359.763 30.8096 359.243 30.6838 358.714 30.6838C358.186 30.6838 357.665 30.8096 357.195 31.0507C357.011 31.1114 356.852 31.2285 356.738 31.3852C356.625 31.542 356.564 31.7304 356.564 31.9238C356.564 32.1172 356.625 32.3056 356.738 32.4624C356.852 32.6191 357.011 32.7362 357.195 32.7969C357.667 33.0326 358.187 33.1553 358.714 33.1553C359.242 33.1553 359.762 33.0326 360.234 32.7969C360.417 32.7362 360.577 32.6191 360.69 32.4624C360.803 32.3056 360.864 32.1172 360.864 31.9238C360.864 31.7304 360.803 31.542 360.69 31.3852C360.577 31.2285 360.417 31.1114 360.234 31.0507Z" fill="#263238"/>
<path d="M352.654 36.6503C353.837 36.6503 354.796 36.0978 354.796 35.4163C354.796 34.7347 353.837 34.1823 352.654 34.1823C351.471 34.1823 350.512 34.7347 350.512 35.4163C350.512 36.0978 351.471 36.6503 352.654 36.6503Z" fill="#E84F2E"/>
<path d="M348.114 38.0486C347.646 37.8076 347.127 37.6819 346.601 37.6819C346.074 37.6819 345.555 37.8076 345.087 38.0486C344.249 38.5259 344.249 39.3059 345.087 39.7949C345.557 40.0304 346.075 40.1531 346.601 40.1531C347.126 40.1531 347.644 40.0304 348.114 39.7949C348.917 39.3059 348.917 38.5259 348.114 38.0486Z" fill="#263238"/>
<path d="M361.723 24.928C361.253 24.6925 360.735 24.5698 360.209 24.5698C359.684 24.5698 359.166 24.6925 358.696 24.928C357.858 25.417 357.858 26.197 358.696 26.6743C359.164 26.9153 359.683 27.041 360.209 27.041C360.736 27.041 361.255 26.9153 361.723 26.6743C362.584 26.197 362.584 25.4403 361.723 24.928Z" fill="#263238"/>
<path d="M355.682 28.4201C355.212 28.1845 354.694 28.0619 354.168 28.0619C353.643 28.0619 353.124 28.1845 352.655 28.4201C352.472 28.4839 352.315 28.6028 352.203 28.7603C352.091 28.9177 352.031 29.106 352.031 29.2991C352.031 29.4921 352.091 29.6804 352.203 29.8379C352.315 29.9953 352.472 30.1142 352.655 30.178C353.124 30.4136 353.643 30.5362 354.168 30.5362C354.694 30.5362 355.212 30.4136 355.682 30.178C355.864 30.1142 356.022 29.9953 356.133 29.8379C356.245 29.6804 356.305 29.4921 356.305 29.2991C356.305 29.106 356.245 28.9177 356.133 28.7603C356.022 28.6028 355.864 28.4839 355.682 28.4201Z" fill="#E84F2E"/>
<path d="M349.627 31.9249C349.159 31.684 348.64 31.5582 348.113 31.5582C347.587 31.5582 347.068 31.684 346.6 31.9249C346.416 31.9857 346.257 32.1028 346.143 32.2595C346.03 32.4163 345.969 32.6047 345.969 32.7981C345.969 32.9914 346.03 33.1799 346.143 33.3366C346.257 33.4934 346.416 33.6105 346.6 33.6712C347.07 33.9068 347.588 34.0294 348.113 34.0294C348.639 34.0294 349.157 33.9068 349.627 33.6712C349.81 33.6105 349.97 33.4934 350.083 33.3366C350.197 33.1799 350.258 32.9914 350.258 32.7981C350.258 32.6047 350.197 32.4163 350.083 32.2595C349.97 32.1028 349.81 31.9857 349.627 31.9249Z" fill="#263238"/>
<path d="M346.59 44.0663C346.12 43.8308 345.602 43.7081 345.076 43.7081C344.551 43.7081 344.032 43.8308 343.563 44.0663C342.724 44.5553 342.724 45.3353 343.563 45.8126C344.031 46.0536 344.55 46.1793 345.076 46.1793C345.603 46.1793 346.121 46.0536 346.59 45.8126C347.404 45.3586 347.404 44.5786 346.59 44.0663Z" fill="#E84F2E"/>
<path d="M342.025 41.4713C341.557 41.2303 341.038 41.1046 340.512 41.1046C339.985 41.1046 339.466 41.2303 338.998 41.4713C338.815 41.5321 338.655 41.6492 338.542 41.8059C338.428 41.9626 338.367 42.1511 338.367 42.3445C338.367 42.5378 338.428 42.7263 338.542 42.883C338.655 43.0398 338.815 43.1568 338.998 43.2176C339.466 43.4586 339.985 43.5843 340.512 43.5843C341.038 43.5843 341.557 43.4586 342.025 43.2176C342.209 43.1568 342.368 43.0398 342.482 42.883C342.595 42.7263 342.656 42.5378 342.656 42.3445C342.656 42.1511 342.595 41.9626 342.482 41.8059C342.368 41.6492 342.209 41.5321 342.025 41.4713Z" fill="#263238"/>
<path d="M343.575 35.4171C343.105 35.1815 342.587 35.0588 342.061 35.0588C341.536 35.0588 341.018 35.1815 340.548 35.4171C340.366 35.4809 340.208 35.5998 340.096 35.7572C339.985 35.9147 339.925 36.103 339.925 36.296C339.925 36.4891 339.985 36.6773 340.096 36.8348C340.208 36.9923 340.366 37.1111 340.548 37.175C341.018 37.4105 341.536 37.5332 342.061 37.5332C342.587 37.5332 343.105 37.4105 343.575 37.175C343.757 37.1111 343.915 36.9923 344.027 36.8348C344.138 36.6773 344.198 36.4891 344.198 36.296C344.198 36.103 344.138 35.9147 344.027 35.7572C343.915 35.5998 343.757 35.4809 343.575 35.4171Z" fill="#263238"/>
<path d="M357.206 22.3071C356.736 22.066 356.215 21.9403 355.687 21.9403C355.158 21.9403 354.637 22.066 354.167 22.3071C353.984 22.3679 353.824 22.4849 353.711 22.6417C353.598 22.7984 353.537 22.9869 353.537 23.1803C353.537 23.3736 353.598 23.5621 353.711 23.7188C353.824 23.8756 353.984 23.9926 354.167 24.0534C354.637 24.2945 355.158 24.4202 355.687 24.4202C356.215 24.4202 356.736 24.2945 357.206 24.0534C357.389 23.9926 357.549 23.8756 357.662 23.7188C357.776 23.5621 357.837 23.3736 357.837 23.1803C357.837 22.9869 357.776 22.7984 357.662 22.6417C357.549 22.4849 357.389 22.3679 357.206 22.3071Z" fill="#E84F2E"/>
<path d="M349.626 27.9069C350.809 27.9069 351.768 27.3544 351.768 26.6729C351.768 25.9913 350.809 25.4388 349.626 25.4388C348.443 25.4388 347.484 25.9913 347.484 26.6729C347.484 27.3544 348.443 27.9069 349.626 27.9069Z" fill="#263238"/>
<path d="M345.088 29.3051C344.619 29.0641 344.101 28.9384 343.574 28.9384C343.048 28.9384 342.529 29.0641 342.061 29.3051C341.222 29.7824 341.222 30.5624 342.061 31.0513C342.53 31.2869 343.049 31.4096 343.574 31.4096C344.1 31.4096 344.618 31.2869 345.088 31.0513C345.926 30.5624 345.926 29.7824 345.088 29.3051Z" fill="#E84F2E"/>
<path d="M339.033 32.7973C338.561 32.5617 338.041 32.439 337.513 32.439C336.986 32.439 336.466 32.5617 335.994 32.7973C335.811 32.8581 335.651 32.9752 335.538 33.1319C335.424 33.2887 335.363 33.4771 335.363 33.6705C335.363 33.8638 335.424 34.0523 335.538 34.209C335.651 34.3658 335.811 34.4829 335.994 34.5436C336.464 34.7847 336.985 34.9104 337.513 34.9104C338.042 34.9104 338.563 34.7847 339.033 34.5436C339.216 34.4829 339.376 34.3658 339.489 34.209C339.603 34.0523 339.664 33.8638 339.664 33.6705C339.664 33.4771 339.603 33.2887 339.489 33.1319C339.376 32.9752 339.216 32.8581 339.033 32.7973Z" fill="#263238"/>
<path d="M337.484 38.8506C337.014 38.6095 336.493 38.4838 335.965 38.4838C335.437 38.4838 334.916 38.6095 334.446 38.8506C334.262 38.9113 334.102 39.0284 333.989 39.1851C333.876 39.3419 333.815 39.5303 333.815 39.7237C333.815 39.9171 333.876 40.1055 333.989 40.2623C334.102 40.419 334.262 40.5361 334.446 40.5968C334.916 40.8379 335.437 40.9637 335.965 40.9637C336.493 40.9637 337.014 40.8379 337.484 40.5968C337.668 40.5361 337.828 40.419 337.941 40.2623C338.054 40.1055 338.115 39.9171 338.115 39.7237C338.115 39.5303 338.054 39.3419 337.941 39.1851C337.828 39.0284 337.668 38.9113 337.484 38.8506Z" fill="#E84F2E"/>
<path d="M332.933 36.2317C332.465 35.9907 331.946 35.865 331.42 35.865C330.893 35.865 330.374 35.9907 329.906 36.2317C329.068 36.709 329.068 37.489 329.906 37.978C330.376 38.2135 330.894 38.3362 331.42 38.3362C331.945 38.3362 332.463 38.2135 332.933 37.978C333.783 37.489 333.783 36.709 332.933 36.2317Z" fill="#263238"/>
<path d="M343.899 51.1213V55.7781C344.372 55.7999 344.842 55.6954 345.261 55.4754L379.022 35.987C379.405 35.7437 379.725 35.4133 379.956 35.0228C380.186 34.6323 380.321 34.1928 380.35 33.7402V32.0638C380.326 31.6656 380.219 31.2768 380.037 30.922C379.854 30.5673 379.6 30.2544 379.29 30.0032C379.756 30.4106 379.674 30.9578 379.057 31.3187L345.296 50.8187C344.867 51.0448 344.384 51.1495 343.899 51.1213Z" fill="#37474F"/>
<path d="M350.733 14.8103C350.563 14.5981 350.325 14.4517 350.06 14.3965C349.794 14.3412 349.517 14.3805 349.277 14.5076L319.87 31.4347C319.758 31.4928 319.66 31.5753 319.584 31.676C319.507 31.7768 319.454 31.8933 319.429 32.0171C319.403 32.1409 319.405 32.2689 319.435 32.3917C319.465 32.5145 319.523 32.629 319.602 32.727C319.772 32.9391 320.01 33.0855 320.275 33.1408C320.541 33.196 320.818 33.1567 321.058 33.0296L350.453 16.1258C350.569 16.0678 350.669 15.9846 350.748 15.8823C350.827 15.7801 350.882 15.6614 350.909 15.5351C350.936 15.4088 350.934 15.2781 350.903 15.1526C350.873 15.0272 350.814 14.9102 350.733 14.8103Z" fill="#263238"/>
<path d="M350.732 14.8103C350.563 14.5981 350.325 14.4517 350.059 14.3965C349.794 14.3412 349.517 14.3805 349.277 14.5076L327.402 27.0807L328.625 28.7105L350.453 16.1258C350.568 16.0678 350.669 15.9846 350.748 15.8823C350.827 15.7801 350.882 15.6614 350.909 15.5351C350.936 15.4088 350.934 15.2781 350.903 15.1526C350.873 15.0272 350.814 14.9102 350.732 14.8103Z" fill="#E84F2E"/>
<path d="M348.301 11.551C348.132 11.3416 347.896 11.197 347.633 11.1418C347.37 11.0867 347.096 11.1243 346.857 11.2483L317.485 28.1638C317.374 28.2246 317.277 28.3089 317.202 28.4108C317.127 28.5127 317.075 28.6297 317.049 28.7538C317.024 28.8778 317.026 29.0059 317.055 29.1292C317.084 29.2525 317.139 29.3679 317.217 29.4677C317.386 29.6798 317.624 29.8262 317.89 29.8815C318.156 29.9367 318.432 29.8974 318.672 29.7703L348.044 12.8083C348.149 12.7471 348.239 12.6646 348.31 12.5661C348.38 12.4677 348.429 12.3555 348.453 12.2368C348.477 12.1182 348.476 11.9958 348.45 11.8776C348.424 11.7594 348.373 11.6481 348.301 11.551Z" fill="#263238"/>
<path d="M348.3 11.551C348.132 11.3416 347.896 11.197 347.633 11.1418C347.37 11.0867 347.095 11.1243 346.857 11.2483L339.546 15.4626L340.768 17.0575L348.068 12.8432C348.176 12.7805 348.269 12.695 348.34 12.5928C348.412 12.4905 348.461 12.3739 348.483 12.2509C348.505 12.128 348.5 12.0017 348.469 11.8809C348.437 11.76 348.38 11.6474 348.3 11.551Z" fill="#E84F2E"/>
<path d="M345.868 8.2916C345.699 8.07943 345.461 7.93306 345.195 7.87779C344.929 7.82252 344.653 7.86182 344.413 7.98891L315.006 24.9044C314.895 24.9653 314.798 25.0496 314.723 25.1515C314.648 25.2533 314.596 25.3703 314.57 25.4944C314.545 25.6184 314.546 25.7465 314.575 25.8698C314.604 25.9931 314.66 26.1086 314.738 26.2083C314.907 26.4205 315.145 26.5668 315.411 26.6221C315.677 26.6774 315.953 26.6381 316.193 26.511L345.565 9.54891C345.674 9.4918 345.768 9.4123 345.843 9.3157C345.919 9.21909 345.972 9.1076 346.001 8.98865C346.029 8.8697 346.032 8.74601 346.009 8.62582C345.987 8.50563 345.938 8.39169 345.868 8.2916Z" fill="#263238"/>
<path d="M345.867 8.2916C345.698 8.07943 345.46 7.93306 345.194 7.87779C344.928 7.82252 344.652 7.86182 344.412 7.98891L329.126 16.7552L330.349 18.385L345.646 9.58383C345.753 9.52012 345.845 9.43392 345.916 9.33118C345.986 9.22844 346.034 9.11161 346.055 8.98875C346.076 8.8659 346.07 8.73994 346.037 8.61958C346.005 8.49921 345.947 8.38731 345.867 8.2916Z" fill="#E84F2E"/>
<path d="M343.445 5.0311C343.276 4.81893 343.038 4.67256 342.772 4.61729C342.506 4.56202 342.23 4.60133 341.99 4.72841L312.583 21.6439C312.472 21.7048 312.375 21.7891 312.3 21.891C312.225 21.9928 312.173 22.1099 312.147 22.2339C312.122 22.3579 312.124 22.486 312.153 22.6093C312.182 22.7326 312.237 22.8481 312.315 22.9478C312.484 23.16 312.722 23.3063 312.988 23.3616C313.254 23.4169 313.53 23.3776 313.77 23.2505L343.142 6.28841C343.251 6.2313 343.345 6.15181 343.421 6.0552C343.496 5.9586 343.549 5.84711 343.578 5.72816C343.607 5.6092 343.61 5.48551 343.587 5.36532C343.564 5.24513 343.516 5.1312 343.445 5.0311Z" fill="#263238"/>
<path d="M343.446 5.0311C343.277 4.81893 343.039 4.67256 342.773 4.61729C342.508 4.56202 342.231 4.60133 341.991 4.72841L315.285 20.0839L316.507 21.7138L343.167 6.32334C343.279 6.26476 343.376 6.18238 343.452 6.08202C343.529 5.98166 343.582 5.86578 343.609 5.74253C343.635 5.61929 343.635 5.49171 343.607 5.36878C343.579 5.24585 343.524 5.13058 343.446 5.0311Z" fill="#E84F2E"/>
<path d="M286.447 222.349C286.536 222.318 286.632 222.309 286.725 222.323C286.818 222.337 286.907 222.374 286.982 222.43C287.219 222.587 287.416 222.797 287.558 223.044C287.699 223.29 287.781 223.567 287.797 223.85C287.804 223.941 287.791 224.031 287.759 224.116C287.727 224.2 287.676 224.276 287.611 224.339L287.518 224.398L252.523 244.596L250.194 243.269L286.447 222.349Z" fill="#455A64"/>
<path d="M291.174 225.084C291.262 225.051 291.357 225.039 291.45 225.052C291.544 225.064 291.633 225.099 291.709 225.154C291.948 225.31 292.148 225.519 292.291 225.766C292.435 226.013 292.518 226.289 292.536 226.574C292.544 226.667 292.53 226.761 292.495 226.848C292.461 226.935 292.407 227.012 292.338 227.075L292.245 227.133L257.25 247.332L254.921 246.004L291.174 225.084Z" fill="#455A64"/>
<path d="M295.9 227.808C295.989 227.777 296.085 227.768 296.178 227.783C296.271 227.797 296.36 227.833 296.436 227.889C296.673 228.043 296.871 228.251 297.012 228.496C297.154 228.741 297.236 229.016 297.251 229.298C297.258 229.39 297.246 229.483 297.213 229.569C297.181 229.656 297.13 229.734 297.064 229.799L296.96 229.857L261.976 250.055L259.648 248.728L295.9 227.808Z" fill="#455A64"/>
<path d="M300.626 230.534C300.718 230.505 300.814 230.498 300.909 230.512C301.004 230.526 301.094 230.561 301.173 230.615C301.41 230.772 301.607 230.982 301.749 231.229C301.89 231.475 301.972 231.751 301.988 232.035C301.997 232.126 301.984 232.217 301.952 232.301C301.92 232.386 301.868 232.462 301.802 232.524L301.709 232.582L266.714 252.781L264.385 251.454L300.626 230.534Z" fill="#455A64"/>
<path d="M61.3668 345.077C61.4836 346.68 61.9767 348.234 62.8059 349.611C63.6352 350.989 64.7774 352.151 66.1399 353.005L200.02 430.271C201.501 431.023 203.138 431.415 204.799 431.415C206.46 431.415 208.097 431.023 209.578 430.271L392.68 324.552C394.122 323.789 395.33 322.647 396.171 321.249C397.013 319.851 397.458 318.25 397.458 316.618C397.458 314.987 397.013 313.386 396.171 311.988C395.33 310.59 394.122 309.448 392.68 308.685L258.846 231.418C257.366 230.672 255.731 230.283 254.073 230.283C252.415 230.283 250.78 230.672 249.3 231.418L66.1865 337.137C64.8138 337.987 63.6616 339.149 62.8239 340.529C61.9863 341.908 61.487 343.467 61.3668 345.077Z" fill="#E84F2E"/>
<path opacity="0.7" d="M204.793 421.072V431.41C203.125 431.434 201.478 431.034 200.008 430.246L66.1857 353.003C64.7823 352.268 63.5993 351.173 62.7579 349.831C61.9165 348.488 61.4469 346.946 61.3971 345.363C61.3474 343.779 61.7193 342.211 62.4748 340.819C63.2303 339.426 64.3422 338.259 65.6968 337.438C63.5547 338.974 63.7177 341.221 66.1857 342.641L200.066 419.908C201.517 420.692 203.144 421.092 204.793 421.072Z" fill="black"/>
<path d="M56.9303 337.311C55.5927 336.403 54.4891 335.191 53.71 333.775C52.9309 332.358 52.4985 330.777 52.4483 329.161V169.506C52.5389 167.85 53.0183 166.239 53.8476 164.803C54.6768 163.367 55.8326 162.147 57.2214 161.24L240.335 55.5216C241.716 54.6555 243.308 54.1821 244.938 54.1524C246.569 54.1226 248.176 54.5376 249.589 55.3526C251.001 56.1677 252.165 57.3521 252.954 58.7787C253.744 60.2052 254.131 61.82 254.072 63.4496V223.151C253.983 224.808 253.505 226.419 252.675 227.856C251.846 229.292 250.689 230.512 249.299 231.417L66.1855 337.136C64.7654 337.891 63.1871 338.301 61.5788 338.331C59.9706 338.361 58.378 338.012 56.9303 337.311Z" fill="#E84F2E"/>
<path opacity="0.7" d="M65.6148 337.438C64.2464 338.054 62.7599 338.362 61.2595 338.342C59.7592 338.322 58.2814 337.974 56.9301 337.322C55.593 336.413 54.49 335.201 53.711 333.785C52.932 332.369 52.4992 330.788 52.448 329.173V169.506C52.5127 167.86 52.9933 166.258 53.845 164.849L62.8091 170.018C61.9539 171.426 61.4693 173.028 61.4005 174.675V334.388C61.3656 337.205 63.2515 338.474 65.6148 337.438Z" fill="black"/>
<path opacity="0.5" d="M61.3668 174.687V334.389C61.3668 337.428 63.4972 338.662 66.1399 337.137L249.253 231.418C250.643 230.513 251.8 229.293 252.63 227.856C253.459 226.42 253.938 224.808 254.026 223.152V63.4502C254.026 60.4 251.884 59.166 249.253 60.691L66.1865 166.41C64.7869 167.311 63.6205 168.531 62.7828 169.97C61.9452 171.409 61.4599 173.025 61.3668 174.687Z" fill="black"/>
<path d="M66.185 342.655L200.065 419.922C201.546 420.673 203.184 421.065 204.844 421.065C206.505 421.065 208.142 420.673 209.623 419.922L392.667 314.156C395.31 312.631 395.31 310.163 392.667 308.638L258.845 231.418C257.364 230.672 255.729 230.283 254.072 230.283C252.414 230.283 250.779 230.672 249.298 231.418L66.185 337.137C63.5423 338.662 63.5423 341.13 66.185 342.655Z" fill="#E84F2E"/>
<path opacity="0.3" d="M66.185 342.655L200.065 419.922C201.546 420.673 203.184 421.065 204.844 421.065C206.505 421.065 208.142 420.673 209.623 419.922L392.667 314.156C395.31 312.631 395.31 310.163 392.667 308.638L258.845 231.418C257.364 230.672 255.729 230.283 254.072 230.283C252.414 230.283 250.779 230.672 249.298 231.418L66.185 337.137C63.5423 338.662 63.5423 341.13 66.185 342.655Z" fill="black"/>
<path d="M68.7579 175.27L245.305 73.3696C246.889 72.4616 248.169 73.2066 248.169 75.0344V213.28C248.115 214.274 247.828 215.241 247.33 216.102C246.832 216.964 246.139 217.696 245.305 218.24L68.7579 320.14C67.1747 321.048 65.8824 320.315 65.8824 318.487V180.276C65.9335 179.274 66.2206 178.298 66.7203 177.428C67.22 176.559 67.9182 175.819 68.7579 175.27Z" fill="#FAFAFA"/>
<path opacity="0.3" d="M81.7151 338.522L251.685 240.394C252.425 240.02 253.243 239.825 254.072 239.825C254.901 239.825 255.718 240.02 256.458 240.394L265.155 245.411C265.444 245.508 265.695 245.694 265.873 245.941C266.051 246.189 266.147 246.486 266.147 246.791C266.147 247.096 266.051 247.393 265.873 247.64C265.695 247.888 265.444 248.073 265.155 248.17L95.1264 346.287C94.3863 346.661 93.5689 346.855 92.7399 346.855C91.9109 346.855 91.0934 346.661 90.3533 346.287L81.6802 341.281C81.3923 341.18 81.1434 340.992 80.9684 340.742C80.7935 340.492 80.7015 340.194 80.7053 339.889C80.7092 339.584 80.8088 339.288 80.99 339.043C81.1711 338.798 81.4248 338.615 81.7151 338.522Z" fill="black"/>
<path opacity="0.3" d="M104.126 351.409L274.096 253.28C274.835 252.901 275.653 252.704 276.483 252.704C277.313 252.704 278.131 252.901 278.869 253.28L332.34 284.154C332.629 284.251 332.88 284.437 333.058 284.684C333.236 284.932 333.332 285.229 333.332 285.534C333.332 285.839 333.236 286.136 333.058 286.383C332.88 286.631 332.629 286.816 332.34 286.913L162.568 384.949C161.826 385.321 161.007 385.516 160.176 385.516C159.345 385.516 158.526 385.321 157.783 384.949L104.126 354.203C103.817 354.122 103.543 353.941 103.348 353.689C103.153 353.436 103.047 353.125 103.047 352.806C103.047 352.486 103.153 352.176 103.348 351.923C103.543 351.67 103.817 351.489 104.126 351.409Z" fill="black"/>
<path d="M256.482 297.473L261.802 294.4C262.024 294.272 262.012 294.051 261.802 293.911L255.656 290.36C255.524 290.295 255.378 290.26 255.231 290.26C255.083 290.26 254.938 290.295 254.806 290.36L249.486 293.434C249.253 293.573 249.264 293.783 249.486 293.923L255.644 297.485C255.775 297.547 255.919 297.578 256.064 297.576C256.21 297.574 256.353 297.539 256.482 297.473ZM246.005 285.273L240.649 288.335C240.417 288.474 240.428 288.684 240.649 288.835L246.808 292.386C246.94 292.452 247.085 292.486 247.233 292.486C247.38 292.486 247.526 292.452 247.658 292.386L252.978 289.313C253.199 289.184 253.188 288.963 252.978 288.824L246.831 285.273C246.7 285.204 246.554 285.169 246.406 285.169C246.258 285.169 246.113 285.204 245.981 285.273H246.005ZM228.81 295.192L219.799 300.395C219.578 300.524 219.589 300.745 219.799 300.884L225.957 304.377C226.087 304.442 226.231 304.477 226.377 304.477C226.522 304.477 226.666 304.442 226.796 304.377L235.806 299.173C236.028 299.045 236.016 298.824 235.806 298.684L229.66 295.192C229.525 295.122 229.375 295.086 229.223 295.086C229.071 295.086 228.921 295.122 228.786 295.192H228.81ZM238.205 289.708L232.873 292.782C232.652 292.91 232.663 293.131 232.873 293.271L239.031 296.763C239.163 296.829 239.309 296.863 239.456 296.863C239.604 296.863 239.749 296.829 239.881 296.763L245.201 293.69C245.423 293.562 245.411 293.341 245.201 293.201L239.054 289.65C238.918 289.593 238.77 289.569 238.623 289.579C238.475 289.589 238.332 289.633 238.205 289.708ZM217.366 301.816L211.999 304.843C211.778 304.982 211.789 305.204 211.999 305.343L218.146 308.894C218.278 308.96 218.423 308.994 218.571 308.994C218.718 308.994 218.864 308.96 218.996 308.894L224.316 305.821C224.549 305.692 224.537 305.471 224.316 305.332L218.157 301.839C218.036 301.776 217.901 301.742 217.764 301.738C217.627 301.734 217.491 301.76 217.366 301.816ZM209.589 306.298L204.269 309.371C204.048 309.499 204.059 309.721 204.269 309.86L210.416 313.411C210.547 313.479 210.693 313.515 210.841 313.515C210.989 313.515 211.134 313.479 211.266 313.411L216.586 310.338C216.819 310.209 216.807 309.988 216.586 309.849L210.381 306.321C210.252 306.254 210.11 306.217 209.964 306.213C209.819 306.209 209.675 306.238 209.543 306.298H209.589ZM233.792 320.745L239.124 317.672C239.346 317.544 239.334 317.323 239.124 317.183L232.966 313.632C232.835 313.564 232.689 313.528 232.541 313.528C232.393 313.528 232.247 313.564 232.116 313.632L226.679 316.694C226.458 316.822 226.47 317.043 226.679 317.183L232.826 320.675C232.961 320.764 233.116 320.817 233.277 320.829C233.438 320.841 233.599 320.812 233.746 320.745H233.792ZM226.016 325.239L231.336 322.166C231.569 322.038 231.557 321.816 231.336 321.677L225.177 318.184C225.045 318.118 224.9 318.084 224.753 318.084C224.605 318.084 224.46 318.118 224.328 318.184L218.938 321.141C218.716 321.269 218.728 321.49 218.938 321.63L225.084 325.192C225.217 325.271 225.367 325.316 225.521 325.325C225.675 325.333 225.829 325.303 225.969 325.239H226.016ZM218.239 329.733L223.559 326.659C223.792 326.531 223.78 326.31 223.559 326.17L217.366 322.62C217.235 322.551 217.089 322.516 216.941 322.516C216.793 322.516 216.647 322.551 216.516 322.62L211.196 325.693C210.975 325.821 210.986 326.042 211.196 326.182L217.343 329.733C217.475 329.798 217.62 329.833 217.768 329.833C217.915 329.833 218.06 329.798 218.192 329.733H218.239ZM210.381 334.215L215.701 331.153C215.934 331.013 215.911 330.792 215.701 330.652L209.543 327.102C209.411 327.036 209.265 327.002 209.118 327.002C208.97 327.002 208.825 327.036 208.693 327.102L203.396 330.163C203.175 330.292 203.186 330.513 203.396 330.652L209.543 334.203C209.671 334.271 209.815 334.308 209.96 334.31C210.106 334.312 210.25 334.279 210.381 334.215ZM248.671 301.967L253.991 298.894C254.212 298.766 254.2 298.544 253.991 298.405L247.844 294.854C247.712 294.788 247.567 294.754 247.419 294.754C247.272 294.754 247.126 294.788 246.994 294.854L241.674 297.858C241.441 297.986 241.453 298.207 241.674 298.347L247.832 301.897C247.962 301.978 248.109 302.026 248.26 302.038C248.412 302.05 248.565 302.026 248.706 301.967H248.671ZM241.488 316.263L253.362 309.406C253.595 309.278 253.572 309.057 253.362 308.917L238.414 300.291C238.282 300.225 238.137 300.191 237.989 300.191C237.842 300.191 237.696 300.225 237.564 300.291L231.429 303.841C231.196 303.97 231.208 304.191 231.429 304.33L239.346 308.894C239.59 309.034 239.602 309.255 239.346 309.383L234.433 312.224C234.212 312.352 234.223 312.573 234.433 312.712L240.591 316.263C240.733 316.345 240.893 316.388 241.057 316.388C241.22 316.388 241.381 316.345 241.523 316.263H241.488ZM201.731 310.792L196.411 313.865C196.189 313.993 196.201 314.214 196.411 314.354L202.558 317.905C202.69 317.97 202.835 318.004 202.982 318.004C203.13 318.004 203.275 317.97 203.407 317.905L208.728 314.831C208.961 314.703 208.949 314.482 208.728 314.342L202.569 310.792C202.444 310.731 202.307 310.699 202.168 310.699C202.028 310.699 201.891 310.731 201.766 310.792H201.731ZM193.989 315.32L188.669 318.394C188.448 318.522 188.459 318.743 188.669 318.883L194.816 322.433C194.947 322.502 195.093 322.537 195.241 322.537C195.389 322.537 195.534 322.502 195.666 322.433L200.986 319.372C201.219 319.232 201.195 319.011 200.986 318.871L194.827 315.378C194.701 315.305 194.56 315.262 194.415 315.252C194.27 315.242 194.124 315.265 193.989 315.32ZM155.129 365.671C155.26 365.739 155.406 365.775 155.554 365.775C155.702 365.775 155.848 365.739 155.979 365.671L161.299 362.609C161.52 362.469 161.509 362.248 161.299 362.109L155.141 358.558C155.011 358.491 154.867 358.457 154.722 358.457C154.576 358.457 154.432 358.491 154.302 358.558L148.97 361.631C148.749 361.759 148.761 361.98 148.97 362.12L155.129 365.671ZM131.764 351.247L126.444 354.309C126.222 354.448 126.234 354.658 126.444 354.809L132.59 358.36C132.723 358.425 132.868 358.46 133.015 358.46C133.163 358.46 133.308 358.425 133.44 358.36L138.761 355.286C138.993 355.158 138.982 354.937 138.761 354.797L132.602 351.247C132.475 351.175 132.333 351.134 132.187 351.128C132.041 351.122 131.896 351.151 131.764 351.212V351.247ZM144.29 361.783C144.423 361.848 144.568 361.882 144.715 361.882C144.863 361.882 145.008 361.848 145.14 361.783L150.461 358.709C150.682 358.581 150.67 358.36 150.461 358.22L144.314 354.669C144.182 354.604 144.036 354.57 143.889 354.57C143.741 354.57 143.596 354.604 143.464 354.669L138.144 357.743C137.911 357.883 137.922 358.092 138.144 358.232L144.29 361.783ZM168.855 368.395L174.175 365.333C174.408 365.194 174.396 364.972 174.175 364.833L168.016 361.282C167.884 361.216 167.739 361.182 167.591 361.182C167.444 361.182 167.299 361.216 167.167 361.282L161.846 364.355C161.625 364.483 161.637 364.705 161.846 364.844L167.993 368.395C168.129 368.46 168.278 368.491 168.428 368.485C168.578 368.479 168.725 368.436 168.855 368.36V368.395ZM160.228 372.877C160.36 372.943 160.506 372.977 160.653 372.977C160.8 372.977 160.946 372.943 161.078 372.877L166.398 369.804C166.631 369.676 166.608 369.454 166.398 369.315L160.24 365.764C160.108 365.698 159.962 365.664 159.815 365.664C159.667 365.664 159.522 365.698 159.39 365.764L154.07 368.837C153.848 368.977 153.86 369.187 154.07 369.326L160.228 372.877ZM139.541 346.753L134.22 349.826C133.999 349.955 134.011 350.176 134.22 350.315L140.379 353.866C140.508 353.934 140.652 353.97 140.798 353.97C140.944 353.97 141.088 353.934 141.217 353.866L146.549 350.804C146.77 350.665 146.759 350.455 146.549 350.304L140.39 346.811C140.263 346.736 140.12 346.692 139.972 346.682C139.825 346.672 139.677 346.696 139.541 346.753ZM178.436 324.296L173.127 327.335C172.894 327.463 172.918 327.684 173.127 327.823L179.286 331.374C179.418 331.44 179.563 331.474 179.711 331.474C179.858 331.474 180.003 331.44 180.135 331.374L185.456 328.301C185.677 328.173 185.665 327.952 185.456 327.812L179.309 324.261C179.174 324.192 179.024 324.155 178.872 324.155C178.72 324.155 178.571 324.192 178.436 324.261V324.296ZM147.329 342.259L141.997 345.333C141.776 345.461 141.787 345.682 141.997 345.822L148.156 349.372C148.288 349.438 148.433 349.472 148.58 349.472C148.728 349.472 148.873 349.438 149.005 349.372L154.326 346.299C154.547 346.171 154.535 345.95 154.326 345.81L148.167 342.259C148.04 342.188 147.898 342.148 147.752 342.142C147.607 342.136 147.462 342.164 147.329 342.224V342.259ZM186.212 319.802L180.892 322.876C180.659 323.015 180.683 323.225 180.892 323.365L187.051 326.927C187.183 326.993 187.328 327.027 187.476 327.027C187.623 327.027 187.769 326.993 187.901 326.927L193.221 323.854C193.454 323.726 193.43 323.504 193.221 323.365L187.097 319.791C186.963 319.716 186.812 319.674 186.658 319.67C186.504 319.666 186.351 319.7 186.212 319.767V319.802ZM170.659 328.79L165.339 331.863C165.106 331.991 165.118 332.212 165.339 332.352L171.497 335.845C171.629 335.91 171.775 335.944 171.922 335.944C172.07 335.944 172.215 335.91 172.347 335.845L177.667 332.771C177.889 332.632 177.877 332.422 177.667 332.282L171.521 328.72C171.384 328.658 171.235 328.629 171.086 328.635C170.936 328.641 170.79 328.682 170.659 328.755V328.79ZM162.882 333.283L157.562 336.275C157.329 336.403 157.341 336.625 157.562 336.764L163.721 340.315C163.852 340.383 163.998 340.419 164.146 340.419C164.293 340.419 164.439 340.383 164.57 340.315L169.891 337.242C170.112 337.114 170.1 336.892 169.891 336.753L163.744 333.26C163.612 333.188 163.465 333.149 163.315 333.147C163.164 333.145 163.016 333.18 162.882 333.249V333.283ZM155.106 337.766L149.844 340.804C149.611 340.932 149.622 341.153 149.844 341.293L156.002 344.855C156.134 344.921 156.28 344.955 156.427 344.955C156.574 344.955 156.72 344.921 156.852 344.855L162.172 341.782C162.393 341.654 162.382 341.433 162.172 341.293L156.025 337.742C155.885 337.663 155.728 337.62 155.567 337.618C155.406 337.616 155.248 337.655 155.106 337.731V337.766ZM194.862 343.237L200.183 340.164C200.404 340.036 200.392 339.815 200.183 339.675L194.036 336.124C193.904 336.058 193.758 336.024 193.611 336.024C193.463 336.024 193.318 336.058 193.186 336.124L187.866 339.198C187.633 339.326 187.656 339.547 187.866 339.686L194.024 343.237C194.153 343.305 194.295 343.342 194.441 343.346C194.586 343.35 194.73 343.321 194.862 343.26V343.237ZM263.176 275.377L257.844 278.451C257.623 278.579 257.635 278.8 257.844 278.94L264.003 282.432C264.135 282.498 264.28 282.532 264.428 282.532C264.575 282.532 264.721 282.498 264.853 282.432L270.173 279.359C270.394 279.219 270.382 279.01 270.173 278.87L264.014 275.307C263.882 275.246 263.737 275.218 263.591 275.224C263.445 275.23 263.303 275.271 263.176 275.342V275.377ZM253.758 280.814L248.438 283.887C248.205 284.015 248.217 284.237 248.438 284.376L254.596 287.927C254.727 287.995 254.873 288.031 255.021 288.031C255.169 288.031 255.315 287.995 255.446 287.927L260.766 284.865C260.988 284.726 260.976 284.504 260.766 284.365L254.62 280.791C254.487 280.721 254.34 280.684 254.19 280.682C254.041 280.68 253.892 280.713 253.758 280.779V280.814ZM270.918 270.849L265.598 273.922C265.365 274.05 265.377 274.271 265.598 274.411L271.756 277.962C271.888 278.027 272.034 278.062 272.181 278.062C272.329 278.062 272.474 278.027 272.606 277.962L277.926 274.888C278.148 274.76 278.136 274.539 277.926 274.399L271.779 270.849C271.646 270.781 271.498 270.746 271.349 270.746C271.199 270.746 271.052 270.781 270.918 270.849ZM230.661 312.363L235.981 309.29C236.202 309.162 236.191 308.941 235.981 308.801L229.834 305.308C229.702 305.243 229.557 305.209 229.409 305.209C229.262 305.209 229.116 305.243 228.984 305.308L223.652 308.335C223.431 308.475 223.443 308.684 223.652 308.824L229.811 312.387C229.949 312.454 230.102 312.488 230.256 312.484C230.41 312.48 230.561 312.438 230.696 312.363H230.661ZM279.556 266.378C279.424 266.313 279.279 266.278 279.131 266.278C278.984 266.278 278.838 266.313 278.706 266.378L273.386 269.452C273.153 269.591 273.165 269.801 273.386 269.941L279.545 273.503C279.677 273.569 279.822 273.603 279.969 273.603C280.117 273.603 280.262 273.569 280.394 273.503L285.715 270.43C285.936 270.301 285.924 270.08 285.715 269.941L279.556 266.378ZM202.616 338.709L207.936 335.635C208.169 335.507 208.146 335.286 207.936 335.146L201.778 331.654C201.645 331.588 201.5 331.554 201.353 331.554C201.205 331.554 201.06 331.588 200.928 331.654L195.607 334.727C195.375 334.867 195.398 335.076 195.607 335.216L201.754 338.778C201.896 338.839 202.051 338.865 202.205 338.853C202.359 338.84 202.508 338.791 202.639 338.709H202.616ZM297.997 283.643L303.317 280.57C303.538 280.441 303.527 280.22 303.317 280.081L297.17 276.53C297.038 276.464 296.893 276.43 296.745 276.43C296.598 276.43 296.452 276.464 296.32 276.53L291 279.603C290.767 279.731 290.791 279.953 291 280.092L297.159 283.585C297.286 283.664 297.432 283.711 297.582 283.721C297.732 283.731 297.883 283.705 298.02 283.643H297.997ZM281.431 283.061L286.751 279.987C286.972 279.859 286.96 279.638 286.751 279.499L280.604 275.948C280.472 275.882 280.326 275.848 280.179 275.848C280.032 275.848 279.886 275.882 279.754 275.948L274.411 278.998C274.178 279.126 274.189 279.347 274.411 279.487L280.569 282.979C280.699 283.064 280.847 283.115 281.001 283.129C281.155 283.144 281.311 283.12 281.454 283.061H281.431ZM288.346 271.419C288.214 271.353 288.068 271.319 287.921 271.319C287.773 271.319 287.628 271.353 287.496 271.419L282.176 274.493C281.943 274.632 281.954 274.842 282.176 274.981L288.334 278.544C288.466 278.61 288.612 278.644 288.759 278.644C288.906 278.644 289.052 278.61 289.184 278.544L294.504 275.47C294.725 275.342 294.714 275.121 294.504 274.981L288.346 271.419ZM289.976 270.476L304.924 279.103C305.055 279.171 305.201 279.207 305.349 279.207C305.497 279.207 305.642 279.171 305.773 279.103L311.094 276.029C311.327 275.901 311.303 275.68 311.094 275.54L296.146 266.914C296.015 266.845 295.869 266.81 295.721 266.81C295.573 266.81 295.427 266.845 295.296 266.914L289.976 269.987C289.743 270.15 289.766 270.371 289.999 270.511L289.976 270.476ZM271.966 280.395L266.645 283.468C266.413 283.596 266.424 283.818 266.645 283.957L272.804 287.508C272.935 287.576 273.081 287.612 273.229 287.612C273.377 287.612 273.523 287.576 273.654 287.508L278.974 284.446C279.195 284.307 279.184 284.097 278.974 283.946L272.816 280.395C272.684 280.329 272.538 280.295 272.391 280.295C272.243 280.295 272.098 280.329 271.966 280.395ZM213.419 314.156L208.052 317.288C207.831 317.416 207.843 317.637 208.052 317.777L214.199 321.327C214.331 321.393 214.477 321.427 214.624 321.427C214.772 321.427 214.917 321.393 215.049 321.327L220.369 318.254C220.602 318.114 220.591 317.905 220.369 317.765L214.211 314.203C214.086 314.148 213.95 314.12 213.814 314.123C213.677 314.125 213.543 314.156 213.419 314.214V314.156ZM289.393 288.055C289.526 288.121 289.671 288.155 289.818 288.155C289.966 288.155 290.111 288.121 290.243 288.055L295.564 284.982C295.785 284.854 295.773 284.632 295.564 284.493L289.417 281C289.286 280.932 289.14 280.896 288.992 280.896C288.844 280.896 288.698 280.932 288.567 281L283.247 284.074C283.014 284.202 283.025 284.423 283.247 284.563L289.393 288.055ZM221.196 309.662L215.876 312.736C215.655 312.864 215.666 313.085 215.876 313.225L222.023 316.834C222.153 316.899 222.296 316.933 222.442 316.933C222.587 316.933 222.731 316.899 222.861 316.834L228.193 313.76C228.414 313.632 228.402 313.411 228.193 313.271L222.023 309.744C221.895 309.678 221.755 309.642 221.612 309.638C221.469 309.634 221.327 309.662 221.196 309.721V309.662ZM162.906 361.084C163.038 361.15 163.183 361.184 163.331 361.184C163.478 361.184 163.623 361.15 163.756 361.084L169.076 358.011C169.297 357.883 169.285 357.661 169.076 357.522L162.929 353.971C162.797 353.905 162.651 353.871 162.504 353.871C162.357 353.871 162.211 353.905 162.079 353.971L156.759 357.044C156.526 357.172 156.538 357.394 156.759 357.533L162.906 361.084ZM151.206 350.083L145.885 353.156C145.653 353.284 145.664 353.505 145.885 353.645L152.044 357.137C152.175 357.206 152.321 357.242 152.469 357.242C152.617 357.242 152.763 357.206 152.894 357.137L158.214 354.064C158.435 353.936 158.424 353.715 158.214 353.575L152.067 350.024C151.925 349.971 151.772 349.954 151.622 349.974C151.471 349.995 151.329 350.052 151.206 350.141V350.083ZM171.532 356.614L176.853 353.54C177.074 353.412 177.062 353.191 176.853 353.051L170.706 349.559C170.574 349.493 170.428 349.459 170.281 349.459C170.133 349.459 169.988 349.493 169.856 349.559L164.501 352.574C164.268 352.702 164.279 352.923 164.501 353.063L170.659 356.625C170.79 356.702 170.938 356.746 171.09 356.754C171.242 356.762 171.393 356.734 171.532 356.672V356.614ZM179.309 352.12L184.629 349.046C184.85 348.918 184.839 348.697 184.629 348.557L178.482 345.007C178.351 344.938 178.205 344.903 178.057 344.903C177.909 344.903 177.764 344.938 177.632 345.007L172.312 348.08C172.079 348.208 172.091 348.429 172.312 348.569L178.471 352.062C178.591 352.147 178.73 352.202 178.876 352.222C179.021 352.242 179.17 352.227 179.309 352.178V352.12ZM187.086 347.638L192.406 344.564C192.627 344.425 192.615 344.215 192.406 344.075L186.259 340.513C186.127 340.447 185.982 340.413 185.834 340.413C185.687 340.413 185.541 340.447 185.409 340.513L180.112 343.633C179.879 343.761 179.891 343.982 180.112 344.122L186.271 347.673C186.398 347.738 186.538 347.774 186.681 347.778C186.824 347.783 186.967 347.754 187.097 347.696L187.086 347.638ZM158.982 345.589L153.662 348.662C153.429 348.79 153.441 349.012 153.662 349.151L159.821 352.702C159.953 352.768 160.098 352.802 160.246 352.802C160.393 352.802 160.538 352.768 160.67 352.702L165.991 349.629C166.212 349.489 166.2 349.279 165.991 349.14L159.844 345.577C159.705 345.52 159.554 345.497 159.405 345.509C159.255 345.521 159.11 345.568 158.982 345.647V345.589ZM166.759 341.095L161.485 344.227C161.253 344.355 161.264 344.576 161.485 344.716L167.644 348.266C167.776 348.332 167.921 348.366 168.069 348.366C168.216 348.366 168.362 348.332 168.494 348.266L173.814 345.193C174.035 345.065 174.024 344.844 173.814 344.704L167.667 341.153C167.528 341.078 167.372 341.038 167.213 341.038C167.055 341.038 166.899 341.078 166.759 341.153V341.095ZM197.866 323.132L192.546 326.205C192.324 326.333 192.336 326.555 192.546 326.694L198.692 330.245C198.824 330.313 198.969 330.349 199.117 330.349C199.265 330.349 199.411 330.313 199.542 330.245L204.863 327.172C205.095 327.043 205.084 326.822 204.863 326.683L198.739 323.213C198.606 323.14 198.457 323.1 198.305 323.096C198.153 323.092 198.003 323.124 197.866 323.19V323.132ZM190.089 327.626L184.769 330.757C184.548 330.885 184.559 331.106 184.769 331.246L190.916 334.797C191.048 334.863 191.193 334.897 191.341 334.897C191.488 334.897 191.634 334.863 191.766 334.797L197.086 331.723C197.319 331.595 197.307 331.374 197.086 331.235L190.927 327.684C190.798 327.617 190.654 327.583 190.508 327.583C190.363 327.583 190.219 327.617 190.089 327.684V327.626ZM205.643 318.65L200.322 321.712C200.101 321.851 200.113 322.072 200.322 322.212L206.469 325.705C206.601 325.77 206.747 325.804 206.894 325.804C207.042 325.804 207.187 325.77 207.319 325.705L212.639 322.631C212.872 322.503 212.86 322.282 212.639 322.142L206.481 318.592C206.342 318.542 206.193 318.527 206.048 318.548C205.902 318.568 205.763 318.623 205.643 318.708V318.65ZM174.536 336.601L169.215 339.768C168.983 339.908 169.006 340.117 169.215 340.257L175.374 343.819C175.506 343.885 175.651 343.919 175.799 343.919C175.946 343.919 176.092 343.885 176.224 343.819L181.544 340.746C181.765 340.618 181.754 340.397 181.544 340.257L175.397 336.764C175.272 336.68 175.129 336.627 174.979 336.608C174.829 336.59 174.677 336.608 174.536 336.66V336.601ZM182.312 332.119L176.992 335.193C176.771 335.321 176.783 335.542 176.992 335.682L183.139 339.174C183.27 339.243 183.416 339.278 183.564 339.278C183.712 339.278 183.858 339.243 183.989 339.174L189.309 336.112C189.542 335.973 189.519 335.752 189.309 335.612L183.151 332.061C183.011 332.015 182.863 332.001 182.718 332.021C182.573 332.042 182.434 332.095 182.312 332.178V332.119ZM176.62 363.878L181.94 360.805C182.173 360.677 182.161 360.455 181.94 360.316L175.781 356.823C175.65 356.755 175.504 356.719 175.357 356.719C175.209 356.719 175.063 356.755 174.932 356.823L169.635 359.815C169.413 359.943 169.425 360.164 169.635 360.304L175.781 363.855C175.91 363.922 176.053 363.959 176.198 363.963C176.343 363.967 176.487 363.938 176.62 363.878ZM130.984 359.221L124.825 355.671C124.693 355.605 124.548 355.571 124.4 355.571C124.253 355.571 124.108 355.605 123.976 355.671L118.655 358.744C118.434 358.872 118.446 359.093 118.655 359.233L124.802 362.784C124.934 362.849 125.08 362.884 125.227 362.884C125.375 362.884 125.52 362.849 125.652 362.784L130.972 359.71C131.217 359.629 131.217 359.408 130.996 359.268L130.984 359.221ZM142.626 362.644L136.467 359.093C136.337 359.028 136.194 358.994 136.048 358.994C135.903 358.994 135.759 359.028 135.629 359.093L127.48 363.82C127.259 363.948 127.27 364.169 127.48 364.309L133.627 367.801C133.759 367.867 133.904 367.901 134.052 367.901C134.199 367.901 134.344 367.867 134.476 367.801L142.626 363.075C142.859 363.051 142.859 362.83 142.649 362.691L142.626 362.644ZM121.531 352.353L115.372 348.802C115.24 348.736 115.095 348.702 114.947 348.702C114.8 348.702 114.655 348.736 114.522 348.802L108.003 352.574C107.77 352.702 107.782 352.923 108.003 353.063L114.162 356.614C114.294 356.679 114.439 356.713 114.586 356.713C114.734 356.713 114.879 356.679 115.011 356.614L121.554 352.83C121.81 352.76 121.799 352.574 121.554 352.399L121.531 352.353ZM126.548 349.454C126.68 349.522 126.825 349.558 126.973 349.558C127.121 349.558 127.267 349.522 127.398 349.454L132.719 346.38C132.951 346.252 132.928 346.031 132.719 345.892L126.56 342.399C126.428 342.333 126.283 342.299 126.135 342.299C125.988 342.299 125.842 342.333 125.71 342.399L120.39 345.472C120.169 345.6 120.18 345.822 120.39 345.961L126.548 349.454ZM153.487 366.544L147.329 363.051C147.198 362.983 147.052 362.947 146.904 362.947C146.756 362.947 146.61 362.983 146.479 363.051L136.246 368.872C136.025 369 136.036 369.222 136.246 369.361L142.405 372.912C142.535 372.978 142.678 373.012 142.824 373.012C142.969 373.012 143.113 372.978 143.243 372.912L153.487 366.998C153.744 366.94 153.732 366.719 153.487 366.544ZM158.598 373.75L152.44 370.2C152.308 370.134 152.162 370.1 152.015 370.1C151.867 370.1 151.722 370.134 151.59 370.2L145.036 373.983C144.814 374.111 144.826 374.332 145.036 374.472L151.194 378.023C151.326 378.088 151.472 378.123 151.619 378.123C151.766 378.123 151.912 378.088 152.044 378.023L158.587 374.239C158.854 374.146 158.831 373.925 158.598 373.785V373.75ZM184.396 316.077C184.528 316.143 184.674 316.177 184.821 316.177C184.969 316.177 185.114 316.143 185.246 316.077L190.566 313.004C190.799 312.864 190.788 312.654 190.566 312.515L184.408 308.952C184.276 308.887 184.131 308.852 183.983 308.852C183.836 308.852 183.69 308.887 183.558 308.952L178.238 312.026C178.017 312.154 178.028 312.375 178.238 312.515L184.396 316.077ZM168.843 325.053C168.974 325.121 169.12 325.157 169.268 325.157C169.416 325.157 169.562 325.121 169.693 325.053L175.013 321.979C175.246 321.851 175.234 321.63 175.013 321.49L168.855 317.94C168.723 317.874 168.577 317.84 168.43 317.84C168.282 317.84 168.137 317.874 168.005 317.94L162.65 321.048C162.428 321.176 162.44 321.397 162.65 321.537L168.843 325.053ZM134.348 345.007C134.48 345.072 134.626 345.107 134.773 345.107C134.921 345.107 135.066 345.072 135.198 345.007L140.519 341.933C140.751 341.805 140.74 341.584 140.519 341.444L134.36 337.882C134.228 337.816 134.083 337.782 133.935 337.782C133.788 337.782 133.642 337.816 133.51 337.882L128.167 340.932C127.945 341.06 127.957 341.281 128.167 341.421L134.348 345.007ZM176.62 320.559C176.752 320.625 176.897 320.659 177.045 320.659C177.192 320.659 177.337 320.625 177.47 320.559L182.79 317.486C183.023 317.358 183.011 317.136 182.79 316.997L176.62 313.504C176.488 313.436 176.343 313.4 176.195 313.4C176.047 313.4 175.901 313.436 175.77 313.504L170.45 316.566C170.228 316.706 170.24 316.927 170.45 317.066L176.62 320.559ZM161.066 329.535C161.198 329.6 161.344 329.635 161.491 329.635C161.639 329.635 161.784 329.6 161.916 329.535L167.236 326.461C167.469 326.333 167.446 326.112 167.236 325.972L161.078 322.41C160.946 322.344 160.8 322.31 160.653 322.31C160.506 322.31 160.36 322.344 160.228 322.41L154.908 325.484C154.687 325.612 154.698 325.833 154.908 325.972L161.066 329.535ZM162.871 374.309C162.739 374.243 162.593 374.209 162.446 374.209C162.298 374.209 162.153 374.243 162.021 374.309L153.872 379.036C153.639 379.164 153.65 379.385 153.872 379.525L160.03 383.075C160.162 383.141 160.308 383.175 160.455 383.175C160.603 383.175 160.748 383.141 160.88 383.075L169.029 378.349C169.25 378.221 169.239 378 169.029 377.86L162.871 374.309ZM149.902 335.984C150.034 336.05 150.179 336.084 150.327 336.084C150.474 336.084 150.62 336.05 150.752 335.984L156.072 332.911C156.305 332.783 156.293 332.562 156.072 332.422L149.844 328.929C149.712 328.861 149.567 328.825 149.419 328.825C149.271 328.825 149.125 328.861 148.994 328.929L143.673 331.991C143.452 332.131 143.464 332.34 143.673 332.492L149.902 335.984ZM142.125 340.466C142.257 340.532 142.403 340.566 142.55 340.566C142.697 340.566 142.843 340.532 142.975 340.466L148.295 337.393C148.528 337.265 148.516 337.044 148.295 336.904L142.137 333.353C142.005 333.288 141.859 333.254 141.712 333.254C141.564 333.254 141.419 333.288 141.287 333.353L135.967 336.427C135.745 336.555 135.757 336.776 135.967 336.916L142.125 340.466ZM307.007 291.164C306.875 291.098 306.73 291.064 306.583 291.064C306.435 291.064 306.29 291.098 306.158 291.164L293.037 298.719C292.805 298.847 292.828 299.068 293.037 299.208L299.196 302.701C299.327 302.769 299.473 302.805 299.621 302.805C299.769 302.805 299.914 302.769 300.046 302.701L313.143 295.145C313.376 295.017 313.352 294.796 313.143 294.656L307.007 291.164ZM289.813 301.094C289.681 301.026 289.536 300.99 289.388 300.99C289.24 300.99 289.094 301.026 288.963 301.094L283.642 304.167C283.421 304.295 283.433 304.517 283.642 304.656L289.789 308.207C289.921 308.275 290.066 308.311 290.214 308.311C290.362 308.311 290.508 308.275 290.639 308.207L295.959 305.134C296.192 305.006 296.181 304.784 295.959 304.645L289.813 301.094ZM184.455 359.384L189.786 356.311C190.008 356.183 189.996 355.962 189.786 355.822L183.605 352.271C183.473 352.206 183.327 352.171 183.18 352.171C183.032 352.171 182.887 352.206 182.755 352.271L177.435 355.345C177.213 355.473 177.225 355.694 177.435 355.834L183.581 359.396C183.711 359.456 183.853 359.486 183.996 359.484C184.139 359.482 184.28 359.448 184.408 359.384H184.455ZM274.259 310.081C274.127 310.016 273.982 309.982 273.834 309.982C273.687 309.982 273.541 310.016 273.409 310.081L268.089 313.155C267.856 313.283 267.88 313.504 268.089 313.644L274.236 317.136C274.368 317.202 274.513 317.236 274.661 317.236C274.808 317.236 274.954 317.202 275.086 317.136L280.406 314.063C280.639 313.935 280.616 313.714 280.406 313.574L274.259 310.081ZM314.784 286.681C314.652 286.616 314.507 286.582 314.359 286.582C314.212 286.582 314.066 286.616 313.934 286.681L308.567 289.708C308.346 289.836 308.358 290.058 308.567 290.197L314.714 293.748C314.846 293.814 314.992 293.848 315.139 293.848C315.287 293.848 315.432 293.814 315.564 293.748L320.885 290.675C321.117 290.547 321.094 290.325 320.885 290.186L314.784 286.681ZM328.754 285.738L313.806 277.112C313.675 277.044 313.529 277.008 313.381 277.008C313.233 277.008 313.088 277.044 312.956 277.112L307.636 280.174C307.415 280.313 307.427 280.535 307.636 280.674L322.573 289.301C322.705 289.366 322.85 289.401 322.997 289.401C323.145 289.401 323.29 289.366 323.422 289.301L328.743 286.227C328.929 286.099 328.917 285.878 328.673 285.738H328.754ZM245.225 326.857C245.095 326.792 244.951 326.758 244.806 326.758C244.66 326.758 244.516 326.792 244.386 326.857L237.832 330.641C237.599 330.769 237.623 330.99 237.832 331.13L243.991 334.68C244.122 334.749 244.268 334.785 244.416 334.785C244.563 334.785 244.709 334.749 244.84 334.68L251.395 330.897C251.616 330.769 251.604 330.548 251.395 330.408L245.225 326.857ZM264.876 315.506C264.744 315.441 264.598 315.407 264.451 315.407C264.304 315.407 264.158 315.441 264.026 315.506L255.877 320.233C255.656 320.361 255.667 320.582 255.877 320.722L262.024 324.273C262.156 324.338 262.301 324.373 262.449 324.373C262.596 324.373 262.742 324.338 262.874 324.273L271.023 319.546C271.256 319.418 271.244 319.197 271.023 319.057L264.876 315.506ZM227.215 337.253C227.084 337.185 226.938 337.149 226.79 337.149C226.642 337.149 226.496 337.185 226.365 337.253L182.441 362.528C182.219 362.656 182.231 362.877 182.441 363.017L188.587 366.509C188.719 366.575 188.865 366.609 189.012 366.609C189.16 366.609 189.305 366.575 189.437 366.509L233.234 341.212C233.466 341.083 233.455 340.862 233.234 340.723L227.215 337.253ZM180.962 363.96C180.831 363.891 180.685 363.855 180.537 363.855C180.389 363.855 180.243 363.891 180.112 363.96L173.476 367.708C173.255 367.836 173.267 368.057 173.476 368.197L179.635 371.748C179.765 371.814 179.908 371.849 180.054 371.849C180.2 371.849 180.343 371.814 180.473 371.748L187.027 367.964C187.249 367.836 187.237 367.615 187.027 367.475L180.962 363.96ZM236.226 332.061C236.094 331.993 235.949 331.957 235.801 331.957C235.653 331.957 235.507 331.993 235.376 332.061L228.821 335.845C228.6 335.973 228.612 336.194 228.821 336.334L234.968 339.884C235.1 339.95 235.246 339.984 235.393 339.984C235.541 339.984 235.686 339.95 235.818 339.884L242.372 336.101C242.594 335.973 242.582 335.752 242.372 335.612L236.226 332.061ZM171.951 369.163C171.819 369.098 171.674 369.064 171.526 369.064C171.379 369.064 171.233 369.098 171.101 369.163L164.559 372.947C164.326 373.075 164.349 373.296 164.559 373.436L170.717 376.987C170.849 377.052 170.995 377.086 171.142 377.086C171.29 377.086 171.435 377.052 171.567 376.987L178.11 373.203C178.343 373.075 178.331 372.854 178.11 372.714L171.951 369.163ZM254.235 321.653C254.103 321.588 253.958 321.554 253.81 321.554C253.663 321.554 253.518 321.588 253.385 321.653L246.831 325.437C246.61 325.565 246.622 325.786 246.831 325.926L252.99 329.418C253.121 329.487 253.267 329.522 253.415 329.522C253.563 329.522 253.708 329.487 253.84 329.418L260.382 325.646C260.615 325.507 260.592 325.286 260.382 325.146L254.235 321.653ZM282.071 305.588C281.939 305.522 281.793 305.488 281.646 305.488C281.498 305.488 281.353 305.522 281.221 305.588L275.901 308.661C275.679 308.789 275.691 309.01 275.901 309.15L282.048 312.712C282.18 312.778 282.325 312.812 282.472 312.812C282.62 312.812 282.765 312.778 282.897 312.712L288.218 309.639C288.451 309.511 288.427 309.29 288.218 309.15L282.071 305.588ZM299.033 293.201L304.353 290.127C304.574 289.999 304.563 289.778 304.353 289.638L298.206 286.088C298.075 286.019 297.929 285.984 297.781 285.984C297.633 285.984 297.488 286.019 297.356 286.088L292.036 289.161C291.803 289.289 291.827 289.51 292.036 289.65L298.195 293.201C298.325 293.265 298.469 293.298 298.614 293.298C298.759 293.298 298.902 293.265 299.033 293.201ZM264.259 292.968L269.579 289.906C269.8 289.767 269.789 289.545 269.579 289.406L263.432 285.855C263.301 285.787 263.155 285.751 263.007 285.751C262.859 285.751 262.714 285.787 262.582 285.855L257.262 288.928C257.029 289.056 257.053 289.278 257.262 289.417L263.421 292.968C263.549 293.036 263.693 293.073 263.838 293.075C263.984 293.077 264.128 293.044 264.259 292.98V292.968ZM246.633 323.469L262.187 314.494C262.42 314.366 262.408 314.144 262.187 314.005L256.028 310.454C255.896 310.388 255.751 310.354 255.603 310.354C255.456 310.354 255.31 310.388 255.178 310.454L239.602 319.395C239.38 319.535 239.392 319.756 239.602 319.895L245.749 323.446C245.883 323.521 246.034 323.563 246.188 323.567C246.342 323.571 246.495 323.537 246.633 323.469ZM290.406 297.695C290.538 297.763 290.683 297.799 290.831 297.799C290.979 297.799 291.125 297.763 291.256 297.695L296.576 294.633C296.798 294.493 296.786 294.272 296.576 294.132L290.43 290.581C290.298 290.516 290.152 290.482 290.005 290.482C289.857 290.482 289.712 290.516 289.58 290.581L284.259 293.655C284.027 293.783 284.038 294.004 284.259 294.144L290.406 297.695ZM282.467 292.63L287.787 289.569C288.008 289.429 287.996 289.208 287.787 289.068L281.64 285.517C281.508 285.452 281.363 285.418 281.215 285.418C281.068 285.418 280.922 285.452 280.79 285.517L275.435 288.544C275.202 288.672 275.214 288.893 275.435 289.033L281.594 292.584C281.725 292.662 281.873 292.706 282.026 292.712C282.178 292.718 282.33 292.686 282.467 292.619V292.63ZM238.857 327.963L244.177 324.89C244.41 324.762 244.386 324.54 244.177 324.401L238.018 320.85C237.886 320.784 237.741 320.75 237.593 320.75C237.446 320.75 237.301 320.784 237.169 320.85L231.848 323.924C231.615 324.052 231.639 324.273 231.848 324.412L237.995 327.963C238.13 328.029 238.278 328.062 238.427 328.06C238.577 328.058 238.724 328.021 238.857 327.952V327.963ZM273.246 307.613C273.378 307.679 273.524 307.713 273.671 307.713C273.819 307.713 273.964 307.679 274.096 307.613L279.416 304.54C279.649 304.412 279.626 304.191 279.416 304.051L273.246 300.512C273.114 300.446 272.969 300.412 272.821 300.412C272.674 300.412 272.529 300.446 272.397 300.512L267.076 303.585C266.843 303.725 266.867 303.935 267.076 304.074L273.246 307.613ZM200.008 350.409L205.328 347.335C205.549 347.195 205.538 346.986 205.328 346.846L199.112 343.26C198.98 343.195 198.834 343.161 198.687 343.161C198.539 343.161 198.394 343.195 198.262 343.26L192.918 346.346C192.685 346.474 192.697 346.695 192.918 346.835L199.077 350.385C199.213 350.462 199.366 350.505 199.522 350.509C199.678 350.513 199.833 350.478 199.973 350.409H200.008ZM207.785 345.915L213.105 342.841C213.326 342.713 213.315 342.492 213.105 342.352L206.888 338.802C206.756 338.736 206.611 338.702 206.463 338.702C206.316 338.702 206.17 338.736 206.038 338.802L200.718 341.875C200.485 342.003 200.497 342.224 200.718 342.364L206.877 345.915C207.012 345.984 207.161 346.02 207.313 346.02C207.465 346.02 207.615 345.984 207.75 345.915H207.785ZM192.185 354.902L197.517 351.829C197.738 351.701 197.726 351.48 197.517 351.34L191.358 347.789C191.227 347.721 191.081 347.685 190.933 347.685C190.785 347.685 190.639 347.721 190.508 347.789L185.188 350.863C184.967 350.991 184.978 351.212 185.188 351.352L191.346 354.902C191.476 354.969 191.62 355.003 191.766 355.003C191.911 355.003 192.055 354.969 192.185 354.902ZM223.303 336.939L228.623 333.877C228.845 333.738 228.833 333.516 228.623 333.377L222.477 329.826C222.345 329.76 222.199 329.726 222.052 329.726C221.904 329.726 221.759 329.76 221.627 329.826L216.306 332.899C216.074 333.027 216.085 333.249 216.306 333.388L222.465 336.939C222.596 337.004 222.74 337.036 222.885 337.034C223.031 337.032 223.174 336.996 223.303 336.927V336.939ZM215.526 341.433L220.847 338.359C221.068 338.231 221.056 338.01 220.847 337.87L214.7 334.32C214.568 334.254 214.422 334.22 214.275 334.22C214.128 334.22 213.982 334.254 213.85 334.32L208.53 337.393C208.297 337.533 208.309 337.742 208.53 337.882L214.688 341.444C214.821 341.505 214.965 341.534 215.11 341.53C215.255 341.526 215.398 341.489 215.526 341.421V341.433ZM231.08 332.457L236.4 329.383C236.621 329.255 236.61 329.034 236.4 328.895L230.253 325.402C230.122 325.334 229.976 325.298 229.828 325.298C229.68 325.298 229.535 325.334 229.403 325.402L224.083 328.475C223.85 328.603 223.874 328.825 224.083 328.964L230.242 332.515C230.377 332.568 230.524 332.59 230.669 332.577C230.814 332.565 230.955 332.52 231.08 332.445V332.457ZM266.657 266.029C266.789 266.095 266.935 266.129 267.082 266.129C267.229 266.129 267.375 266.095 267.507 266.029L272.827 262.956C273.06 262.827 273.048 262.606 272.827 262.467L271.186 261.524C271.054 261.458 270.908 261.424 270.761 261.424C270.613 261.424 270.468 261.458 270.336 261.524L265.016 264.597C264.794 264.725 264.806 264.946 265.016 265.086L266.657 266.029ZM228.391 290.721C228.523 290.787 228.668 290.821 228.816 290.821C228.963 290.821 229.108 290.787 229.24 290.721L234.561 287.648C234.794 287.52 234.782 287.298 234.561 287.159L228.402 283.608C228.27 283.542 228.125 283.508 227.977 283.508C227.83 283.508 227.684 283.542 227.552 283.608L222.232 286.681C222.011 286.81 222.023 287.031 222.232 287.17L228.391 290.721ZM243.944 281.745C244.075 281.814 244.221 281.849 244.369 281.849C244.517 281.849 244.663 281.814 244.794 281.745L250.114 278.672C250.347 278.544 250.335 278.323 250.114 278.183L243.956 274.632C243.824 274.564 243.679 274.528 243.531 274.528C243.383 274.528 243.237 274.564 243.106 274.632L237.786 277.706C237.564 277.834 237.576 278.055 237.786 278.195L243.944 281.745ZM218.891 296.204C219.023 296.27 219.168 296.304 219.316 296.304C219.463 296.304 219.609 296.27 219.741 296.204L225.073 293.131C225.294 293.003 225.282 292.782 225.073 292.642L218.914 289.15C218.782 289.084 218.637 289.05 218.489 289.05C218.342 289.05 218.196 289.084 218.064 289.15L212.709 292.153C212.488 292.281 212.5 292.502 212.709 292.642L218.891 296.204ZM236.167 286.216C236.299 286.281 236.445 286.316 236.592 286.316C236.74 286.316 236.885 286.281 237.017 286.216L242.337 283.142C242.57 283.014 242.559 282.793 242.337 282.653L236.179 279.161C236.047 279.095 235.901 279.061 235.754 279.061C235.607 279.061 235.461 279.095 235.329 279.161L230.009 282.234C229.788 282.374 229.799 282.584 230.009 282.723L236.167 286.216ZM203.396 305.18C203.528 305.246 203.673 305.28 203.821 305.28C203.968 305.28 204.114 305.246 204.246 305.18L209.566 302.107C209.799 301.979 209.787 301.758 209.566 301.618L203.407 298.067C203.276 297.999 203.13 297.963 202.982 297.963C202.835 297.963 202.689 297.999 202.558 298.067L197.237 301.129C197.016 301.269 197.028 301.49 197.237 301.629L203.396 305.18ZM211.172 300.687C211.304 300.752 211.45 300.786 211.597 300.786C211.745 300.786 211.89 300.752 212.022 300.687L217.343 297.613C217.575 297.473 217.564 297.264 217.343 297.124L211.184 293.562C211.052 293.496 210.907 293.462 210.759 293.462C210.612 293.462 210.466 293.496 210.334 293.562L204.932 296.693C204.711 296.821 204.723 297.043 204.932 297.182L211.172 300.687ZM251.127 274.993C251.258 275.061 251.404 275.097 251.552 275.097C251.7 275.097 251.846 275.061 251.977 274.993L257.297 271.931C257.53 271.792 257.518 271.582 257.297 271.431L255.656 270.488C255.524 270.422 255.378 270.388 255.231 270.388C255.083 270.388 254.938 270.422 254.806 270.488L249.486 273.561C249.264 273.689 249.276 273.91 249.486 274.05L251.127 274.993ZM274.411 261.524C274.542 261.592 274.688 261.628 274.835 261.628C274.983 261.628 275.129 261.592 275.26 261.524L280.592 258.45C280.814 258.322 280.802 258.101 280.592 257.961L278.951 257.018C278.82 256.95 278.674 256.914 278.526 256.914C278.378 256.914 278.232 256.95 278.101 257.018L272.781 260.08C272.559 260.22 272.571 260.441 272.781 260.581L274.411 261.524ZM287.345 268.986C287.476 269.054 287.622 269.09 287.769 269.09C287.917 269.09 288.063 269.054 288.194 268.986L293.515 265.913C293.736 265.784 293.724 265.563 293.515 265.424L287.368 261.931C287.237 261.863 287.091 261.827 286.943 261.827C286.795 261.827 286.649 261.863 286.518 261.931L281.198 265.004C280.965 265.133 280.976 265.354 281.198 265.493L287.345 268.986ZM306.786 288.719L312.107 285.645C312.339 285.517 312.316 285.296 312.107 285.156L305.948 281.664C305.816 281.598 305.671 281.564 305.523 281.564C305.376 281.564 305.23 281.598 305.098 281.664L299.778 284.737C299.545 284.865 299.568 285.087 299.778 285.226L305.925 288.777C306.065 288.843 306.22 288.872 306.375 288.862C306.529 288.851 306.679 288.802 306.81 288.719H306.786ZM258.88 270.499C259.012 270.565 259.158 270.599 259.305 270.599C259.453 270.599 259.598 270.565 259.73 270.499L265.051 267.426C265.283 267.298 265.272 267.077 265.051 266.937L263.409 265.994C263.278 265.926 263.132 265.89 262.984 265.89C262.836 265.89 262.69 265.926 262.559 265.994L257.239 269.067C257.018 269.196 257.029 269.417 257.239 269.556L258.88 270.499ZM195.561 309.662C195.693 309.728 195.838 309.762 195.986 309.762C196.133 309.762 196.279 309.728 196.411 309.662L201.731 306.589C201.964 306.461 201.952 306.24 201.731 306.1L195.572 302.549C195.44 302.484 195.295 302.449 195.148 302.449C195 302.449 194.855 302.484 194.723 302.549L189.426 305.623C189.204 305.751 189.216 305.972 189.426 306.112L195.561 309.662Z" fill="#263238"/>
<path opacity="0.3" d="M230.056 356.357L282.56 326.03C283.448 325.582 284.429 325.348 285.424 325.348C286.419 325.348 287.4 325.582 288.288 326.03L318.405 343.423C319.989 344.331 319.989 345.809 318.405 346.729L265.889 376.998C265.003 377.451 264.021 377.688 263.025 377.688C262.03 377.688 261.048 377.451 260.162 376.998L230.056 359.663C228.473 358.743 228.473 357.23 230.056 356.357Z" fill="black"/>
<path d="M56.9296 337.299C57.393 337.564 57.8851 337.775 58.3965 337.928C57.8837 337.784 57.3909 337.577 56.9296 337.311C56.7699 337.228 56.6179 337.13 56.4756 337.02C56.621 337.122 56.7726 337.216 56.9296 337.299Z" fill="#E84F2E"/>
<path opacity="0.3" d="M254.025 62.693C253.688 60.225 251.697 59.3169 249.287 60.714L66.1853 166.41C64.7802 167.266 63.6179 168.469 62.8091 169.902L53.845 164.745C54.6488 163.289 55.8109 162.063 57.2211 161.182L240.335 55.5101C241.66 54.6771 243.18 54.2066 244.744 54.1456C246.308 54.0846 247.861 54.4352 249.247 55.1623C250.633 55.8895 251.803 56.9677 252.642 58.2893C253.481 59.6108 253.958 61.1294 254.025 62.693Z" fill="black"/>
<path d="M65.2894 337.753C65.3117 337.748 65.3348 337.748 65.3571 337.753H65.2894Z" fill="#E84F2E"/>
<path opacity="0.5" d="M397.453 316.623C397.333 318.226 396.839 319.778 396.01 321.155C395.181 322.532 394.04 323.695 392.68 324.551L209.566 430.27C208.096 431.058 206.45 431.459 204.782 431.434V421.108C206.45 421.132 208.096 420.731 209.566 419.944L392.68 314.155C395.136 312.723 395.299 310.488 393.157 308.951C394.395 309.833 395.423 310.978 396.166 312.305C396.908 313.632 397.348 315.106 397.453 316.623Z" fill="black"/>
<path d="M514.661 226.097L493.275 213.757C492.798 213.5 492.111 213.675 491.273 214.315C490.831 214.641 490.388 214.967 489.946 215.27L489.445 215.584C489.154 215.771 488.863 215.969 488.561 216.143C488.258 216.318 488.141 216.376 487.932 216.504L487.152 216.935L486.43 217.296L485.708 217.645L484.905 217.983C484.684 218.076 484.463 218.18 484.23 218.262L483.357 218.588L482.74 218.809L481.797 219.1L481.238 219.263L480.225 219.519L479.713 219.636C479.364 219.717 479.003 219.787 478.642 219.845L478.199 219.927L477.035 220.09H476.651C476.255 220.09 475.848 220.171 475.487 220.194H475.172H473.915H473.659C473.228 220.194 472.798 220.194 472.367 220.194H472.169C471.726 220.194 471.272 220.195 470.83 220.101H470.702L469.317 219.915H469.247L468.606 219.787L455.335 212.127C454.357 211.58 453.461 211.975 452.878 213.407C445.172 232.546 428.757 251.953 417.813 256.808C417.596 256.9 417.386 257.009 417.185 257.134C417.051 257.211 416.923 257.297 416.801 257.39L416.626 257.506L416.149 257.914C415.986 258.065 415.834 258.228 415.683 258.391C414.903 259.243 414.467 260.355 414.461 261.511L416.044 280.953C416.044 293.491 421.376 306.716 432.261 313.038L453.658 325.366L453.81 325.448C459.337 328.506 465.687 329.748 471.959 328.999C474.303 328.611 476.474 327.523 478.188 325.879C502.123 301.163 513.753 267.67 513.753 249.206L515.337 227.785C515.325 226.935 515.08 226.341 514.661 226.097Z" fill="#E84F2E"/>
<path opacity="0.4" d="M476.559 224.431C476.345 224.323 476.108 224.273 475.869 224.285C475.63 224.297 475.398 224.372 475.197 224.501L474.964 224.676C474.829 224.811 474.708 224.959 474.603 225.118C474.486 225.32 474.385 225.53 474.3 225.747C472.294 230.664 469.884 235.407 467.094 239.926C464.68 243.9 462.024 247.721 459.143 251.37C457.746 253.117 456.349 254.781 454.94 256.341C454.945 256.36 454.945 256.38 454.94 256.4L453.776 257.692C453.369 258.099 452.984 258.518 452.612 258.914C452.414 259.135 452.216 259.345 452.006 259.543C447.513 264.06 443.112 267.436 439.352 269.101C438.711 269.386 438.124 269.78 437.617 270.265L437.186 270.696C437.162 270.733 437.135 270.768 437.105 270.8L437.186 270.696L415.812 258.379C415.829 258.346 415.853 258.318 415.882 258.297C415.921 258.233 415.968 258.175 416.022 258.122L416.15 258.006C416.186 257.964 416.225 257.925 416.266 257.89L416.394 257.773C416.505 257.666 416.621 257.565 416.744 257.471L416.918 257.354C417.046 257.273 417.174 257.168 417.302 257.098C417.501 256.969 417.711 256.86 417.931 256.772C428.874 251.917 445.301 232.511 452.996 213.372C453.415 212.347 453.986 211.846 454.637 211.846C454.927 211.858 455.208 211.946 455.452 212.103L468.596 219.856L476.559 224.431Z" fill="white"/>
<path opacity="0.1" d="M514.663 226.097L493.277 213.756C492.811 213.512 492.112 213.687 491.286 214.315C490.855 214.653 490.401 214.979 489.947 215.282L489.458 215.596C489.167 215.782 488.876 215.98 488.573 216.155C488.271 216.329 488.154 216.388 487.945 216.516L487.165 216.946C486.932 217.074 486.687 217.179 486.443 217.296L485.721 217.656L484.906 217.994C484.697 218.099 484.464 218.192 484.243 218.285L483.369 218.599L482.752 218.821L481.798 219.112L481.239 219.275L480.238 219.531L479.737 219.647L478.655 219.857L478.201 219.938C477.828 220.008 477.455 220.055 477.036 220.101H476.652L475.488 220.218H475.174C474.755 220.218 474.335 220.218 473.916 220.218H473.672C473.23 220.218 472.799 220.218 472.368 220.218H472.182C471.728 220.218 471.274 220.159 470.831 220.125H470.703C470.238 220.125 469.772 220.02 469.33 219.95H469.26C469.043 219.922 468.828 219.875 468.619 219.81L476.582 224.397L476.722 224.479C477.025 224.668 477.293 224.908 477.514 225.189C477.57 225.237 477.621 225.292 477.665 225.352C485.814 234.875 501.926 234.863 512.672 226.644C513.487 226.027 514.162 225.829 514.616 226.039H514.686C514.898 226.165 515.059 226.363 515.14 226.597C515.041 226.382 514.873 226.206 514.663 226.097Z" fill="black"/>
<path opacity="0.2" d="M453.322 325.309L432.215 313.155C421.342 306.821 415.998 293.596 415.998 281.058L414.415 261.616C414.428 260.87 414.61 260.135 414.949 259.47C415.288 258.804 415.774 258.224 416.371 257.775C416.107 257.994 415.861 258.236 415.638 258.496L437.023 270.813C436.254 271.673 435.838 272.792 435.859 273.945L437.431 293.387C437.396 305.809 442.635 318.917 453.322 325.309Z" fill="black"/>
<path d="M515.291 227.901L513.707 249.322C513.707 267.832 502.066 301.279 478.153 325.995C476.437 327.646 474.255 328.731 471.902 329.103C465.639 329.875 459.292 328.653 453.764 325.611L453.613 325.529L453.333 325.354C442.634 318.963 437.384 305.866 437.384 293.433L435.812 273.991C435.796 272.842 436.211 271.728 436.976 270.871C437.107 270.719 437.247 270.575 437.396 270.44C437.901 269.954 438.489 269.56 439.13 269.276C442.902 267.6 447.279 264.223 451.796 259.718L452.402 259.089L453.566 257.855L454.73 256.563C456.15 254.992 457.547 253.327 458.944 251.581C461.825 247.931 464.48 244.109 466.896 240.137C469.682 235.621 472.088 230.882 474.09 225.969C474.184 225.75 474.289 225.536 474.405 225.328C474.51 225.173 474.631 225.028 474.766 224.898C474.837 224.832 474.915 224.774 474.998 224.723C475.196 224.589 475.426 224.512 475.664 224.499C475.902 224.487 476.139 224.54 476.349 224.653L476.5 224.723C476.805 224.909 477.073 225.15 477.292 225.433L477.443 225.608C485.592 235.119 501.705 235.107 512.45 226.9C513.253 226.283 513.94 226.085 514.394 226.283H514.452C514.561 226.33 514.654 226.406 514.72 226.504C515.067 226.89 515.268 227.383 515.291 227.901Z" fill="#E84F2E"/>
<path d="M481.762 298.16L469.026 305.506L470.994 282.467C469.469 281.663 468.503 279.673 468.503 276.832C468.503 271.756 471.588 265.865 475.394 263.665C479.201 261.465 482.286 263.793 482.286 268.869C482.204 271.877 481.346 274.812 479.795 277.391L481.762 298.16Z" fill="#455A64"/>
<path d="M481.763 298.16L470.226 291.489L469.027 305.506L481.763 298.16Z" fill="#37474F"/>
<path d="M475.396 263.665C472.621 265.537 470.552 268.282 469.516 271.465L479.796 277.391C481.347 274.812 482.205 271.877 482.288 268.869C482.288 263.793 479.202 261.465 475.396 263.665Z" fill="#37474F"/>
<path d="M491.413 171.765C487.921 169.716 483.427 169.949 479.201 172.382L445.731 191.719C442.242 193.929 439.342 196.954 437.282 200.534C435.221 204.113 434.062 208.14 433.903 212.267V253.269C433.952 253.789 434.138 254.286 434.443 254.71C434.748 255.133 435.16 255.468 435.638 255.679C436.935 256.33 438.366 256.669 439.817 256.669C441.268 256.669 442.699 256.33 443.996 255.679C444.474 255.468 444.886 255.133 445.191 254.71C445.496 254.286 445.682 253.789 445.731 253.269V212.267C445.891 210.214 446.508 208.224 447.538 206.441C448.567 204.658 449.982 203.128 451.68 201.964L485.127 182.604V223.641C485.176 224.162 485.365 224.66 485.672 225.084C485.979 225.507 486.394 225.841 486.873 226.051C488.167 226.705 489.597 227.046 491.047 227.046C492.497 227.046 493.926 226.705 495.22 226.051C495.698 225.84 496.11 225.505 496.415 225.081C496.72 224.658 496.906 224.16 496.955 223.641V182.604C496.978 177.772 494.952 173.802 491.413 171.765Z" fill="#37474F"/>
<path d="M485.127 182.604V223.606C485.177 224.127 485.365 224.625 485.672 225.049C485.979 225.473 486.394 225.807 486.873 226.016C487.417 226.324 488.001 226.556 488.608 226.703V180.602L485.127 182.604Z" fill="#263238"/>
<path d="M168.573 190.986L167.514 193.639L166.349 196.566L156.426 221.476L155.237 224.444L141.86 206.441C144.568 204.878 146.817 202.628 148.378 199.919C149.94 197.21 150.76 194.137 150.757 191.01V180.731L159.653 175.588V185.867C159.655 186.647 159.811 187.42 160.111 188.14C160.412 188.861 160.852 189.515 161.405 190.065C161.959 190.616 162.615 191.052 163.337 191.348C164.059 191.645 164.833 191.797 165.613 191.795C165.788 191.807 165.964 191.807 166.139 191.795C166.213 191.961 166.296 192.123 166.39 192.28L168.573 190.986Z" fill="#E84F2E"/>
<path d="M168.573 190.986C167.837 191.437 167.007 191.714 166.147 191.795C166.221 191.961 166.304 192.123 166.398 192.28L162.621 194.439L166.333 196.591L168.557 197.877L174.501 194.448L168.573 190.986Z" fill="#E84F2E"/>
<g style="mix-blend-mode:multiply" opacity="0.5">
<g style="mix-blend-mode:multiply" opacity="0.5">
<path d="M168.573 190.986C167.837 191.437 167.007 191.714 166.147 191.795C166.221 191.961 166.304 192.123 166.398 192.28L162.621 194.439L166.333 196.591L168.557 197.877L174.501 194.448L168.573 190.986Z" fill="#E84F2E"/>
</g>
</g>
<path d="M174.518 194.448L161.182 227.881L156.426 221.476L147.797 209.87C150.504 208.308 152.751 206.059 154.313 203.352C155.875 200.644 156.696 197.573 156.693 194.448V184.16L159.669 182.446L165.597 179.017V189.304C165.594 190.161 165.776 191.008 166.131 191.787C166.205 191.954 166.289 192.116 166.382 192.272C166.684 192.79 167.063 193.259 167.506 193.663C168.604 194.69 170.047 195.267 171.55 195.281C172.596 195.274 173.621 194.986 174.518 194.448Z" fill="#E84F2E"/>
<path d="M161.886 196.591C163.503 195.645 164.854 196.405 164.854 198.306C164.799 199.335 164.501 200.337 163.985 201.229C163.469 202.121 162.75 202.879 161.886 203.441C160.268 204.387 158.918 203.619 158.918 201.727C158.975 200.698 159.273 199.697 159.789 198.805C160.305 197.912 161.023 197.154 161.886 196.591Z" fill="#E84F2E"/>
<g style="mix-blend-mode:multiply" opacity="0.5">
<g style="mix-blend-mode:multiply" opacity="0.5">
<path d="M161.886 196.591C163.503 195.645 164.854 196.405 164.854 198.306C164.799 199.335 164.501 200.337 163.985 201.229C163.469 202.121 162.75 202.879 161.886 203.441C160.268 204.387 158.918 203.619 158.918 201.727C158.975 200.698 159.273 199.697 159.789 198.805C160.305 197.912 161.023 197.154 161.886 196.591Z" fill="#E84F2E"/>
</g>
</g>
<path d="M161.181 227.881L161.504 227.056V208.811L160.801 209.215V227.371L161.181 227.881Z" fill="#E84F2E"/>
<path d="M165.604 179.017L159.668 175.588L150.764 180.723L156.7 184.16L165.604 179.017Z" fill="#E84F2E"/>
<g style="mix-blend-mode:multiply" opacity="0.5">
<g style="mix-blend-mode:multiply" opacity="0.5">
<path d="M165.604 179.017L159.668 175.588L150.764 180.723L156.7 184.16L165.604 179.017Z" fill="#E84F2E"/>
</g>
</g>
<path d="M147.797 209.87L141.86 206.433L155.245 224.444L161.181 227.881L147.797 209.87Z" fill="#E84F2E"/>
<g style="mix-blend-mode:multiply" opacity="0.5">
<g style="mix-blend-mode:multiply" opacity="0.5">
<path d="M147.797 209.87L141.86 206.433L155.245 224.444L161.181 227.881L147.797 209.87Z" fill="#E84F2E"/>
</g>
</g>
<path d="M150.764 184.161L168.573 173.882V167.024L150.764 177.303V184.161Z" fill="#E84F2E"/>
<path d="M150.765 184.161L144.829 180.732V173.882L150.765 177.303V184.161Z" fill="#E84F2E"/>
<path d="M168.573 167.024L162.637 163.594L144.829 173.882L150.765 177.303L168.573 167.024Z" fill="#E84F2E"/>
<path d="M149.472 233.509C147.023 233.538 144.609 232.919 142.477 231.714C137.422 228.794 134.632 222.664 134.632 214.463H135.368C135.368 222.389 138.02 228.293 142.849 231.075C147.677 233.857 154.106 233.21 160.973 229.247C175.296 220.973 186.95 200.795 186.95 184.256H187.677C187.677 201.03 175.862 221.459 161.337 229.878C157.163 232.288 153.12 233.509 149.472 233.509Z" fill="#E84F2E"/>
<path d="M135.003 212.896C135.755 212.459 136.369 212.815 136.369 213.705C136.343 214.18 136.206 214.643 135.968 215.056C135.731 215.469 135.4 215.82 135.003 216.082C134.242 216.519 133.628 216.163 133.628 215.273C133.654 214.797 133.792 214.333 134.03 213.92C134.269 213.507 134.602 213.156 135.003 212.896Z" fill="#E84F2E"/>
<path d="M187.312 182.673C188.072 182.237 188.687 182.593 188.687 183.482C188.662 183.959 188.525 184.423 188.286 184.837C188.047 185.25 187.713 185.601 187.312 185.86C186.552 186.297 185.937 185.949 185.937 185.051C185.963 184.575 186.101 184.111 186.34 183.698C186.579 183.285 186.912 182.934 187.312 182.673Z" fill="#E84F2E"/>
<path d="M135.003 243.208C135.755 242.771 136.369 243.127 136.369 244.017C136.343 244.492 136.206 244.955 135.968 245.368C135.731 245.781 135.4 246.132 135.003 246.394C134.242 246.831 133.628 246.475 133.628 245.586C133.654 245.109 133.792 244.645 134.03 244.232C134.269 243.819 134.602 243.468 135.003 243.208Z" fill="#E84F2E"/>
<path d="M187.312 212.943C188.072 212.507 188.687 212.863 188.687 213.752C188.661 214.229 188.523 214.692 188.284 215.106C188.045 215.519 187.712 215.87 187.312 216.13C186.552 216.567 185.937 216.211 185.937 215.321C185.963 214.845 186.101 214.381 186.34 213.968C186.579 213.555 186.912 213.204 187.312 212.943Z" fill="#E84F2E"/>
<path d="M187.126 214.226L134.824 244.447L135.189 245.077L187.49 214.856L187.126 214.226Z" fill="#E84F2E"/>
</svg>
