<svg width="132" height="24" viewBox="0 0 132 24" fill="none" xmlns="http://www.w3.org/2000/svg">
<path d="M125.5 6H128.5C128.776 6 129 5.776 129 5.5V2.5C129 2.224 128.776 2 128.5 2H125.5C125.224 2 125 2.224 125 2.5V5.5C125 5.776 125.224 6 125.5 6Z" fill="#E6E1DD"/>
<path fill-rule="evenodd" clip-rule="evenodd" d="M126 12C126 15.309 123.309 18 120 18C116.691 18 114 15.309 114 12C114 8.691 116.691 6 120 6C123.309 6 126 8.691 126 12ZM122 12C122 10.897 121.103 10 120 10C118.897 10 118 10.897 118 12C118 13.103 118.897 14 120 14C121.103 14 122 13.103 122 12Z" fill="#E6E1DD"/>
<path fill-rule="evenodd" clip-rule="evenodd" d="M111.5 0H128.5C130.43 0 132 1.57 132 3.5V8.5V20.5C132 22.43 130.43 24 128.5 24H111.5C109.57 24 108 22.43 108 20.5V8.5V3.5C108 1.57 109.57 0 111.5 0ZM110 4.5V1.513C109.396 1.969 109 2.686 109 3.5V8H113.372C113.548 8 113.71 8.092 113.8 8.242C113.89 8.392 113.895 8.579 113.813 8.734C113.273 9.752 113 10.851 113 12C113 15.86 116.141 19 120 19C123.859 19 127 15.86 127 12C127 10.851 126.727 9.752 126.186 8.734C126.104 8.579 126.109 8.392 126.199 8.242C126.29 8.092 126.452 8 126.628 8H131V3.5C131 2.122 129.879 1 128.5 1H115V4.5C115 4.776 114.776 5 114.5 5C114.224 5 114 4.776 114 4.5V1H113V4.5C113 4.776 112.776 5 112.5 5C112.224 5 112 4.776 112 4.5V1H111.5C111.329 1 111.162 1.018 111 1.051V4.5C111 4.776 110.776 5 110.5 5C110.224 5 110 4.776 110 4.5Z" fill="#E6E1DD"/>
<path d="M77.3689 4.85501C77.2169 4.68801 76.9719 4.64601 76.7709 4.74901C76.6459 4.81301 76.4109 4.89701 76.1319 4.98001C76.4839 4.51201 76.7669 3.98801 76.8919 3.51701C76.9459 3.31401 76.8669 3.10001 76.6949 2.97901C76.5229 2.85901 76.2939 2.85901 76.1219 2.97901C75.8509 3.16801 74.5429 3.73601 73.7159 3.92001C71.8469 2.28301 69.6719 2.11301 67.4109 3.43301C65.5729 4.50601 65.1729 6.68801 65.2509 8.01801C61.0439 7.61301 58.4289 5.39101 56.9569 3.55201C56.8539 3.42301 56.6879 3.35501 56.5319 3.36501C56.3679 3.37701 56.2199 3.46801 56.1359 3.60901C55.4399 4.78401 55.2469 6.08301 55.5799 7.36601C55.7619 8.06601 56.0799 8.68301 56.4489 9.18301C56.2719 9.09601 56.1009 8.98701 55.9399 8.85701C55.7919 8.73501 55.5849 8.71201 55.4099 8.79301C55.2359 8.87601 55.1249 9.05201 55.1249 9.24501C55.1249 11.448 56.5029 12.918 57.7899 13.686C57.5819 13.661 57.3649 13.615 57.1459 13.548C56.9579 13.491 56.7539 13.548 56.6239 13.696C56.4939 13.843 56.4629 14.053 56.5439 14.232C57.2669 15.831 58.6369 16.931 60.3319 17.33C58.8519 18.199 56.8709 18.625 55.0569 18.416C54.8219 18.383 54.5979 18.532 54.5239 18.758C54.4499 18.984 54.5469 19.232 54.7539 19.348C57.5059 20.893 59.9939 21.445 62.1439 21.445C65.2729 21.445 67.6879 20.277 69.1579 19.3C73.1209 16.67 75.5909 11.948 75.2469 7.72301C75.8819 7.25401 76.8319 6.38801 77.4209 5.45701C77.5429 5.26901 77.5209 5.02101 77.3689 4.85501Z" fill="#E6E1DD"/>
<path d="M15 4H18C18.276 4 18.5 3.776 18.5 3.5V0.5C18.5 0.224 18.276 0 18 0H15C11.968 0 9.5 2.467 9.5 5.5V9H6C5.724 9 5.5 9.224 5.5 9.5V12.5C5.5 12.776 5.724 13 6 13H9.5V23.5C9.5 23.776 9.724 24 10 24H13C13.276 24 13.5 23.776 13.5 23.5V13H17C17.215 13 17.406 12.862 17.475 12.658L18.475 9.658C18.526 9.506 18.5 9.338 18.406 9.207C18.311 9.077 18.161 9 18 9H13.5V5.5C13.5 4.673 14.173 4 15 4Z" fill="#E6E1DD"/>
</svg>
